<?xml version="1.0" encoding="UTF-8"?>
<svg id="_レイヤー_1" data-name="レイヤー_1" xmlns="http://www.w3.org/2000/svg" version="1.1" viewBox="0 0 1920 1080">
  <!-- Generator: Adobe Illustrator 30.6.0, SVG Export Plug-In . SVG Version: 2.1.4 Build 109)  -->
  <defs>
    <style>
      .st0 {
        fill: #e8a0a1;
      }

      .st1 {
        fill: #b98d8d;
      }

      .st2 {
        fill: #b95454;
      }

      .st3 {
        fill: #7b3333;
      }

      .st4 {
        fill: #8b3f3f;
      }
    </style>
  </defs>
  <rect class="st0" width="1920" height="1080"/>
  <g>
    <path class="st2" d="M979.38,794.19c.91-1.79,1.37-3.61,1.37-5.47,0-1.27-.22-2.47-.66-3.59s-1.1-2.12-1.98-2.98-1.98-1.55-3.3-2.05-2.86-.76-4.61-.76c-2.54,0-4.82.45-6.84,1.34-2.02.9-3.8,2.12-5.35,3.69-1.55,1.56-2.86,3.37-3.96,5.42-1.09,2.05-1.99,4.25-2.69,6.59-.7,2.34-1.21,4.74-1.54,7.2-.33,2.46-.49,4.86-.49,7.2,0,4.2.54,8.02,1.64,11.45,1.09,3.43,2.56,6.36,4.42,8.79,1.86,2.43,4.02,4.31,6.49,5.64,2.47,1.33,5.11,2,7.91,2,2.96,0,5.96-.77,9.01-2.32,3.04-1.55,6-4.04,8.86-7.5.2.1.45.24.76.42.31.18.59.38.85.61.26.23.49.46.68.68.2.23.29.44.29.63,0,.13-.02.21-.05.24l-.1.2c-3.16,5.11-6.95,8.94-11.38,11.47-4.43,2.54-9.28,3.81-14.55,3.81-2.87,0-5.5-.4-7.91-1.2-2.41-.8-4.59-1.9-6.54-3.32s-3.67-3.09-5.15-5.03c-1.48-1.94-2.72-4.04-3.71-6.3-.99-2.26-1.74-4.64-2.25-7.13-.5-2.49-.76-5-.76-7.54,0-3.42.37-6.84,1.12-10.28.75-3.43,1.85-6.74,3.3-9.91,1.45-3.17,3.21-6.14,5.27-8.89,2.07-2.75,4.41-5.14,7.03-7.18,2.62-2.03,5.51-3.63,8.67-4.79,3.16-1.16,6.53-1.73,10.11-1.73,2.67,0,5.16.33,7.47.98,2.31.65,4.3,1.57,5.98,2.76,1.68,1.19,2.99,2.62,3.96,4.3.96,1.68,1.44,3.54,1.44,5.59,0,1.33-.2,2.51-.61,3.54-.41,1.03-.98,1.9-1.71,2.64s-1.6,1.29-2.59,1.66c-.99.37-2.08.56-3.25.56-.72,0-1.46-.07-2.22-.22-.77-.15-1.52-.38-2.27-.71l-.2-.54Z"/>
    <path class="st2" d="M999.49,816.26c0-3.29.34-6.62,1.03-10.01s1.69-6.67,3.03-9.84c1.33-3.17,2.99-6.15,4.96-8.94,1.97-2.78,4.24-5.22,6.81-7.3,2.57-2.08,5.44-3.73,8.59-4.93,3.16-1.2,6.59-1.81,10.3-1.81,4.17,0,7.85.88,11.06,2.64,3.21,1.76,5.9,4.08,8.08,6.96,2.18,2.88,3.83,6.16,4.96,9.84s1.68,7.44,1.68,11.28c0,3.29-.34,6.62-1.03,10.01s-1.7,6.67-3.05,9.84c-1.35,3.17-3.01,6.15-4.98,8.94-1.97,2.78-4.24,5.22-6.81,7.3-2.57,2.08-5.44,3.73-8.59,4.93-3.16,1.2-6.59,1.81-10.3,1.81-4.17,0-7.85-.88-11.06-2.64-3.21-1.76-5.89-4.08-8.06-6.96-2.17-2.88-3.81-6.16-4.93-9.84-1.12-3.68-1.68-7.44-1.68-11.28ZM1011.16,811.62c0,2.21.17,4.46.51,6.74s.87,4.48,1.59,6.59c.72,2.12,1.6,4.09,2.66,5.93,1.06,1.84,2.31,3.44,3.76,4.81,1.45,1.37,3.08,2.44,4.88,3.22s3.8,1.17,5.98,1.17c2.38,0,4.47-.51,6.27-1.54s3.37-2.38,4.69-4.08c1.32-1.69,2.41-3.63,3.27-5.81.86-2.18,1.55-4.44,2.08-6.76.52-2.33.89-4.63,1.1-6.91.21-2.28.32-4.38.32-6.3,0-2.25-.17-4.5-.51-6.76s-.87-4.44-1.59-6.54c-.72-2.1-1.6-4.07-2.66-5.91-1.06-1.84-2.31-3.43-3.76-4.79-1.45-1.35-3.08-2.42-4.88-3.2s-3.8-1.17-5.98-1.17c-2.38,0-4.47.5-6.27,1.51s-3.37,2.36-4.69,4.05-2.41,3.63-3.27,5.81c-.86,2.18-1.55,4.43-2.08,6.74-.52,2.31-.89,4.61-1.1,6.91-.21,2.29-.32,4.39-.32,6.27Z"/>
    <path class="st2" d="M1064.73,779.44c2.31-.81,4.53-1.55,6.67-2.22,2.13-.67,4.09-1.25,5.88-1.73,1.79-.49,3.37-.86,4.74-1.12s2.44-.39,3.22-.39c1.89,0,3.36.56,4.42,1.68,1.06,1.12,1.59,3.05,1.59,5.79,0,.65-.07,2.04-.2,4.17-.13,2.13-.32,4.81-.56,8.03s-.55,6.9-.9,11.04c-.36,4.13-.77,8.53-1.22,13.18l.29.05c2.28-8.27,4.7-15.21,7.28-20.83,2.57-5.62,5.19-10.15,7.86-13.6,2.67-3.45,5.35-5.92,8.06-7.4,2.7-1.48,5.32-2.22,7.86-2.22,2.25,0,4.15.55,5.71,1.66s2.83,2.56,3.81,4.35,1.69,3.82,2.15,6.08c.46,2.26.68,4.57.68,6.91,0,2.05-.07,4.22-.2,6.52-.13,2.29-.29,4.56-.49,6.79s-.4,4.35-.61,6.35c-.21,2-.4,3.75-.56,5.25l.29.05c2.28-8.4,4.71-15.44,7.3-21.12s5.22-10.25,7.91-13.7,5.38-5.92,8.08-7.4c2.7-1.48,5.32-2.22,7.86-2.22,1.63,0,3.21.34,4.74,1.03,1.53.68,2.89,1.78,4.08,3.3,1.19,1.51,2.14,3.46,2.86,5.83.72,2.38,1.07,5.24,1.07,8.59,0,.94-.06,2.24-.17,3.88-.11,1.64-.25,3.47-.42,5.49-.16,2.02-.35,4.16-.56,6.42-.21,2.26-.4,4.48-.56,6.67-.16,2.18-.3,4.26-.42,6.23-.11,1.97-.17,3.67-.17,5.1,0,2.54.11,4.61.32,6.2.21,1.6.56,2.86,1.05,3.78s1.14,1.56,1.95,1.9c.81.34,1.81.51,2.98.51,1.69,0,3.45-.24,5.27-.71,1.82-.47,3.66-1.13,5.52-1.98l.93,2.54c-1.17.94-2.65,1.9-4.44,2.88-1.79.98-3.67,1.87-5.64,2.69-1.97.81-3.93,1.47-5.88,1.98-1.95.5-3.68.76-5.18.76-1.76,0-3.14-.47-4.15-1.42-1.01-.94-1.77-2.23-2.27-3.86-.5-1.63-.83-3.53-.98-5.71-.15-2.18-.22-4.52-.22-7.03,0-3.03.11-6.2.32-9.52.21-3.32.45-6.48.71-9.47.26-3,.5-5.71.71-8.13.21-2.42.32-4.26.32-5.49,0-3.55-.63-6.21-1.88-7.98-1.25-1.77-2.95-2.66-5.1-2.66-1.66,0-3.43.79-5.3,2.37-1.87,1.58-3.74,3.75-5.62,6.52-1.87,2.77-3.68,6.03-5.42,9.79-1.74,3.76-3.31,7.84-4.71,12.23-1.4,4.39-2.58,8.99-3.54,13.79-.96,4.8-1.59,9.61-1.88,14.43l-10.21,1.27-.78-.05c.36-6.84.69-12.89,1-18.16.31-5.27.59-9.88.83-13.82s.44-7.28.59-10.01.22-5,.22-6.79c0-3.65-.63-6.4-1.88-8.25-1.25-1.86-2.86-2.78-4.81-2.78-1.73,0-3.54.77-5.44,2.32s-3.78,3.69-5.64,6.42-3.64,5.96-5.35,9.69-3.26,7.76-4.64,12.08c-1.38,4.33-2.54,8.89-3.47,13.67s-1.54,9.59-1.83,14.4l-10.21,1.27-.78-.05c.26-3.09.5-6.46.73-10.11.23-3.65.44-7.35.63-11.11s.37-7.49.51-11.18.28-7.15.39-10.35c.11-3.21.2-6.08.24-8.62s.07-4.54.07-6.01c0-1.33-.1-2.46-.29-3.37s-.5-1.64-.9-2.17c-.41-.54-.92-.92-1.54-1.15-.62-.23-1.35-.34-2.2-.34-1.17,0-2.57.16-4.2.49-1.63.33-3.48.76-5.57,1.32l-.73-3.52Z"/>
    <path class="st2" d="M1213.99,775.64c-.55,3.71-1.03,7.43-1.42,11.16s-.71,7.33-.95,10.82-.42,6.78-.54,9.89c-.11,3.11-.17,5.92-.17,8.42,0,3.39.05,6.29.15,8.72.1,2.43.26,4.47.49,6.13.23,1.66.51,2.99.85,3.98.34.99.76,1.76,1.27,2.29.5.54,1.09.89,1.76,1.05.67.16,1.42.24,2.27.24,1.56,0,3.25-.24,5.05-.71,1.81-.47,3.64-1.13,5.49-1.98l.93,2.54c-1.17.94-2.65,1.9-4.42,2.88-1.77.98-3.64,1.87-5.59,2.69s-3.87,1.47-5.74,1.98c-1.87.5-3.49.76-4.86.76-.91,0-1.74-.07-2.49-.22-.75-.15-1.42-.51-2.03-1.1-.6-.59-1.14-1.45-1.61-2.59-.47-1.14-.86-2.69-1.17-4.64-.31-1.95-.55-4.39-.71-7.32-.16-2.93-.24-6.48-.24-10.64,0-2.44.02-5.2.07-8.28s.12-6.38.22-9.91.23-7.26.39-11.18c.16-3.92.37-7.97.63-12.13.06-.91.31-1.65.73-2.22.42-.57.94-1.01,1.56-1.32.62-.31,1.28-.52,1.98-.63.7-.11,1.34-.17,1.93-.17,2.18,0,4.23.5,6.15,1.51ZM1209.75,753.57c-1.14,0-2.15-.24-3.03-.71s-1.63-1.09-2.25-1.86c-.62-.76-1.09-1.64-1.42-2.64-.33-.99-.49-2.01-.49-3.05,0-1.46.24-2.76.73-3.88s1.12-2.07,1.9-2.83,1.64-1.33,2.59-1.71c.94-.37,1.87-.56,2.78-.56,1.11,0,2.1.2,2.98.61s1.64.97,2.27,1.68,1.12,1.54,1.46,2.47.51,1.93.51,3c0,1.14-.2,2.27-.59,3.39s-.94,2.14-1.64,3.05c-.7.91-1.55,1.64-2.54,2.2-.99.55-2.09.83-3.3.83Z"/>
    <path class="st2" d="M1242.36,788.18c0-1.33-.1-2.46-.29-3.37s-.5-1.64-.9-2.17c-.41-.54-.92-.92-1.54-1.15-.62-.23-1.35-.34-2.2-.34-1.17,0-2.57.16-4.2.49-1.63.33-3.48.76-5.57,1.32l-.73-3.52c2.31-.81,4.53-1.55,6.67-2.22,2.13-.67,4.09-1.25,5.88-1.73,1.79-.49,3.37-.86,4.74-1.12s2.44-.39,3.22-.39c1.89,0,3.36.56,4.42,1.68,1.06,1.12,1.59,3.05,1.59,5.79,0,.33-.03,1.08-.1,2.27-.07,1.19-.16,2.69-.27,4.52-.11,1.82-.25,3.91-.42,6.27-.16,2.36-.35,4.88-.56,7.54-.21,2.67-.45,5.43-.71,8.28-.26,2.85-.54,5.69-.83,8.52l.29.05c2.47-8.4,5.13-15.49,7.96-21.26s5.71-10.47,8.64-14.06,5.84-6.19,8.74-7.79,5.66-2.39,8.3-2.39c1.82,0,3.58.34,5.27,1.03s3.2,1.77,4.52,3.27,2.37,3.43,3.15,5.79,1.17,5.22,1.17,8.57c0,.98-.06,2.29-.17,3.93-.12,1.64-.25,3.47-.42,5.49s-.35,4.16-.56,6.42c-.21,2.26-.4,4.48-.56,6.67s-.3,4.26-.41,6.23c-.12,1.97-.17,3.69-.17,5.15,0,2.54.11,4.61.32,6.2.21,1.6.56,2.86,1.05,3.78s1.14,1.56,1.95,1.9,1.81.51,2.98.51c1.69,0,3.45-.24,5.27-.71,1.82-.47,3.66-1.13,5.52-1.98l.93,2.54c-1.17.94-2.65,1.9-4.44,2.88s-3.67,1.87-5.64,2.69c-1.97.81-3.93,1.47-5.88,1.98-1.95.5-3.68.76-5.18.76-1.76,0-3.14-.47-4.15-1.42s-1.77-2.23-2.27-3.86c-.51-1.63-.83-3.53-.98-5.71-.15-2.18-.22-4.52-.22-7.03,0-3.06.11-6.21.32-9.45.21-3.24.45-6.32.71-9.25s.5-5.59.71-7.98c.21-2.39.32-4.3.32-5.74,0-3.81-.72-6.62-2.15-8.42s-3.34-2.71-5.71-2.71c-1.89,0-3.87.8-5.96,2.39s-4.16,3.78-6.22,6.57c-2.07,2.78-4.05,6.07-5.96,9.86s-3.62,7.89-5.15,12.3-2.8,9.03-3.81,13.84c-1.01,4.82-1.64,9.64-1.9,14.45l-10.21,1.27-.78-.05c.26-3.09.5-6.46.73-10.11.23-3.65.44-7.35.63-11.11s.37-7.49.51-11.18.28-7.15.39-10.35c.11-3.21.2-6.08.24-8.62s.07-4.54.07-6.01Z"/>
    <path class="st2" d="M1371.56,783.45c1.66,2.38,2.82,4.77,3.47,7.18.65,2.41.98,4.85.98,7.32s-.35,5.09-1.05,7.54c-.7,2.46-1.69,4.79-2.98,6.98-1.29,2.2-2.83,4.22-4.64,6.05s-3.82,3.43-6.03,4.79c-2.21,1.35-4.59,2.4-7.13,3.15-2.54.75-5.19,1.12-7.96,1.12-.72,0-1.42-.03-2.12-.1-.7-.06-1.42-.15-2.17-.24-1.14.23-2.18.57-3.12,1.03-.94.46-1.77.99-2.49,1.61-.72.62-1.27,1.28-1.66,1.98-.39.7-.59,1.41-.59,2.12,0,1.43.56,2.65,1.68,3.66,1.12,1.01,2.63,1.89,4.52,2.64,1.89.75,4.08,1.41,6.57,1.98,2.49.57,5.09,1.15,7.79,1.73,2.44.52,4.85,1.06,7.23,1.61,2.38.55,4.64,1.19,6.79,1.9,2.15.72,4.13,1.55,5.96,2.51,1.82.96,3.4,2.08,4.74,3.37,1.33,1.29,2.38,2.78,3.12,4.49.75,1.71,1.12,3.69,1.12,5.93,0,2.83-.51,5.56-1.54,8.18-1.03,2.62-2.47,5.07-4.32,7.35-1.86,2.28-4.07,4.36-6.64,6.25-2.57,1.89-5.4,3.51-8.5,4.86-3.09,1.35-6.39,2.39-9.89,3.12-3.5.73-7.1,1.1-10.82,1.1-2.15,0-4.41-.16-6.79-.46-2.38-.31-4.72-.8-7.03-1.46-2.31-.67-4.52-1.53-6.62-2.59-2.1-1.06-3.96-2.34-5.57-3.83-1.61-1.5-2.89-3.22-3.83-5.18s-1.42-4.18-1.42-6.69c0-2.08.34-4.09,1.03-6.01.68-1.92,1.6-3.71,2.76-5.37,1.16-1.66,2.5-3.21,4.03-4.64,1.53-1.43,3.15-2.72,4.86-3.86,1.71-1.14,3.45-2.12,5.22-2.95,1.77-.83,3.49-1.49,5.15-1.98l.1-.24c-1.21-.52-2.38-1.12-3.54-1.78-1.16-.67-2.2-1.46-3.12-2.37-.93-.91-1.68-1.94-2.25-3.1-.57-1.16-.85-2.47-.85-3.93,0-1.66.38-3.15,1.15-4.47.76-1.32,1.73-2.49,2.91-3.52s2.46-1.91,3.86-2.66c1.4-.75,2.75-1.4,4.05-1.95-2.51-.98-4.75-2.23-6.71-3.76-1.97-1.53-3.63-3.27-4.98-5.22-1.35-1.95-2.38-4.08-3.1-6.37-.72-2.29-1.07-4.7-1.07-7.2,0-4.26.83-8.21,2.49-11.84s3.9-6.76,6.71-9.4c2.82-2.64,6.08-4.7,9.79-6.2s7.62-2.25,11.72-2.25c1.56,0,2.99.11,4.3.34,1.3.23,2.51.51,3.61.85,1.11.34,2.12.72,3.05,1.12s1.8.81,2.61,1.2c1.24.62,2.45,1.16,3.64,1.64,1.19.47,2.56.71,4.13.71,1.3,0,2.55-.21,3.76-.63,1.2-.42,2.26-1.03,3.17-1.83.91-.8,1.64-1.77,2.17-2.93s.81-2.47.81-3.93c0-.23,0-.44-.02-.63-.02-.2-.04-.42-.07-.68l.63-.44c2.25,1.04,3.91,2.34,5,3.88,1.09,1.55,1.64,3.1,1.64,4.66,0,1.24-.24,2.34-.73,3.3s-1.18,1.78-2.08,2.47c-.9.68-1.96,1.2-3.2,1.56-1.24.36-2.6.54-4.1.54-2.28,0-4.74-.46-7.37-1.37l-.2.24ZM1339.43,851.71c-2.31.62-4.5,1.51-6.57,2.69-2.07,1.17-3.9,2.6-5.49,4.27-1.6,1.68-2.86,3.59-3.78,5.74s-1.39,4.49-1.39,7.03c0,3.12.69,5.82,2.08,8.08,1.38,2.26,3.17,4.14,5.37,5.64,2.2,1.5,4.65,2.6,7.35,3.32,2.7.72,5.37,1.07,8.01,1.07,3.58,0,7-.55,10.25-1.64,3.25-1.09,6.11-2.6,8.57-4.54,2.46-1.94,4.41-4.22,5.86-6.86,1.45-2.64,2.17-5.52,2.17-8.64,0-1.76-.36-3.26-1.07-4.52-.72-1.25-1.7-2.34-2.95-3.27-1.25-.93-2.74-1.72-4.47-2.37-1.73-.65-3.61-1.25-5.66-1.81-2.77-.75-5.69-1.43-8.76-2.05-3.08-.62-6.24-1.33-9.5-2.15ZM1349.49,822.17c1.76,0,3.34-.3,4.76-.9s2.68-1.41,3.78-2.42c1.11-1.01,2.05-2.19,2.83-3.54s1.42-2.77,1.93-4.25c.5-1.48.88-3,1.12-4.54s.37-3.04.37-4.47c0-1.79-.16-3.61-.46-5.44-.31-1.84-.77-3.62-1.39-5.35-.62-1.73-1.41-3.34-2.37-4.83-.96-1.5-2.08-2.81-3.34-3.93s-2.72-2.01-4.35-2.66c-1.63-.65-3.43-.98-5.42-.98-1.86,0-3.52.29-5,.88-1.48.59-2.79,1.38-3.93,2.39-1.14,1.01-2.11,2.17-2.91,3.49-.8,1.32-1.45,2.72-1.95,4.2-.5,1.48-.88,2.99-1.12,4.52s-.37,3-.37,4.39c0,1.79.16,3.62.49,5.49.33,1.87.81,3.67,1.46,5.4.65,1.73,1.47,3.35,2.47,4.88.99,1.53,2.15,2.86,3.47,4s2.81,2.03,4.47,2.69,3.48.98,5.47.98Z"/>
    <path class="st2" d="M1436.16,826.71c.23,2.47.89,4.61,1.98,6.4,1.09,1.79,2.43,3.26,4.03,4.39,1.59,1.14,3.36,1.99,5.3,2.54,1.94.55,3.87.83,5.79.83,1.79,0,3.52-.24,5.18-.73s3.12-1.19,4.39-2.1c1.27-.91,2.29-2.03,3.05-3.37.76-1.33,1.15-2.83,1.15-4.49s-.41-3.24-1.22-4.54c-.81-1.3-1.9-2.49-3.27-3.56s-2.95-2.07-4.76-2.98-3.69-1.84-5.64-2.78c-1.73-.81-3.46-1.64-5.2-2.47-1.74-.83-3.43-1.73-5.05-2.71-1.63-.98-3.15-2.03-4.57-3.17s-2.65-2.4-3.71-3.78c-1.06-1.38-1.89-2.93-2.49-4.64-.6-1.71-.9-3.61-.9-5.69,0-2.25.39-4.31,1.17-6.2s1.85-3.59,3.2-5.1c1.35-1.51,2.91-2.84,4.69-3.98,1.77-1.14,3.67-2.09,5.69-2.86,2.02-.76,4.09-1.33,6.23-1.71,2.13-.37,4.21-.56,6.23-.56,2.6,0,5.07.29,7.4.85,2.33.57,4.36,1.4,6.1,2.49,1.74,1.09,3.12,2.42,4.15,3.98s1.54,3.32,1.54,5.27c0,.75-.13,1.56-.39,2.44-.26.88-.7,1.7-1.32,2.47-.62.76-1.43,1.41-2.44,1.93-1.01.52-2.25.8-3.71.83-1.37,0-2.8-.21-4.3-.63l-.15-.49c.46-1.04.78-2,.98-2.88s.29-1.69.29-2.44c-.03-1.5-.42-2.76-1.15-3.78s-1.65-1.86-2.76-2.51c-1.11-.65-2.34-1.12-3.69-1.42-1.35-.29-2.68-.44-3.98-.44-2.31,0-4.38.31-6.2.93-1.82.62-3.36,1.44-4.61,2.47-1.25,1.03-2.21,2.19-2.88,3.49-.67,1.3-1,2.65-1,4.05,0,1.79.47,3.39,1.42,4.81.94,1.42,2.2,2.72,3.76,3.91s3.36,2.3,5.4,3.34c2.03,1.04,4.16,2.08,6.37,3.12,2.47,1.17,4.93,2.38,7.37,3.64s4.62,2.68,6.54,4.27c1.92,1.59,3.47,3.43,4.66,5.49,1.19,2.07,1.78,4.5,1.78,7.3,0,3.35-.74,6.33-2.22,8.94-1.48,2.6-3.46,4.8-5.93,6.59-2.47,1.79-5.31,3.15-8.52,4.08-3.21.93-6.54,1.39-9.99,1.39-1.73,0-3.51-.13-5.35-.39-1.84-.26-3.62-.65-5.35-1.17-1.73-.52-3.36-1.16-4.91-1.93-1.55-.76-2.9-1.64-4.05-2.64-1.16-.99-2.07-2.1-2.73-3.32-.67-1.22-1-2.56-1-4.03,0-1.27.27-2.34.81-3.22s1.25-1.59,2.12-2.15c.88-.55,1.86-.97,2.95-1.25,1.09-.28,2.21-.43,3.34-.46l.39.34Z"/>
    <path class="st2" d="M1486.45,816.26c0-3.29.34-6.62,1.03-10.01s1.69-6.67,3.03-9.84c1.33-3.17,2.99-6.15,4.96-8.94,1.97-2.78,4.24-5.22,6.81-7.3,2.57-2.08,5.44-3.73,8.59-4.93,3.16-1.2,6.59-1.81,10.3-1.81,4.17,0,7.85.88,11.06,2.64,3.21,1.76,5.9,4.08,8.08,6.96,2.18,2.88,3.83,6.16,4.96,9.84s1.68,7.44,1.68,11.28c0,3.29-.34,6.62-1.03,10.01s-1.7,6.67-3.05,9.84c-1.35,3.17-3.01,6.15-4.98,8.94-1.97,2.78-4.24,5.22-6.81,7.3-2.57,2.08-5.44,3.73-8.59,4.93-3.16,1.2-6.59,1.81-10.3,1.81-4.17,0-7.85-.88-11.06-2.64-3.21-1.76-5.89-4.08-8.06-6.96-2.17-2.88-3.81-6.16-4.93-9.84-1.12-3.68-1.68-7.44-1.68-11.28ZM1498.12,811.62c0,2.21.17,4.46.51,6.74s.87,4.48,1.59,6.59c.72,2.12,1.6,4.09,2.66,5.93,1.06,1.84,2.31,3.44,3.76,4.81,1.45,1.37,3.08,2.44,4.88,3.22s3.8,1.17,5.98,1.17c2.38,0,4.47-.51,6.27-1.54s3.37-2.38,4.69-4.08c1.32-1.69,2.41-3.63,3.27-5.81.86-2.18,1.55-4.44,2.08-6.76.52-2.33.89-4.63,1.1-6.91.21-2.28.32-4.38.32-6.3,0-2.25-.17-4.5-.51-6.76s-.87-4.44-1.59-6.54c-.72-2.1-1.6-4.07-2.66-5.91-1.06-1.84-2.31-3.43-3.76-4.79-1.45-1.35-3.08-2.42-4.88-3.2s-3.8-1.17-5.98-1.17c-2.38,0-4.47.5-6.27,1.51s-3.37,2.36-4.69,4.05-2.41,3.63-3.27,5.81c-.86,2.18-1.55,4.43-2.08,6.74-.52,2.31-.89,4.61-1.1,6.91-.21,2.29-.32,4.39-.32,6.27Z"/>
    <path class="st2" d="M1557.5,816.26c0-3.29.34-6.62,1.03-10.01s1.69-6.67,3.03-9.84c1.33-3.17,2.99-6.15,4.96-8.94,1.97-2.78,4.24-5.22,6.81-7.3,2.57-2.08,5.44-3.73,8.59-4.93,3.16-1.2,6.59-1.81,10.3-1.81,4.17,0,7.85.88,11.06,2.64,3.21,1.76,5.9,4.08,8.08,6.96,2.18,2.88,3.83,6.16,4.96,9.84s1.68,7.44,1.68,11.28c0,3.29-.34,6.62-1.03,10.01s-1.7,6.67-3.05,9.84c-1.35,3.17-3.01,6.15-4.98,8.94-1.97,2.78-4.24,5.22-6.81,7.3-2.57,2.08-5.44,3.73-8.59,4.93-3.16,1.2-6.59,1.81-10.3,1.81-4.17,0-7.85-.88-11.06-2.64-3.21-1.76-5.89-4.08-8.06-6.96-2.17-2.88-3.81-6.16-4.93-9.84-1.12-3.68-1.68-7.44-1.68-11.28ZM1569.17,811.62c0,2.21.17,4.46.51,6.74s.87,4.48,1.59,6.59c.72,2.12,1.6,4.09,2.66,5.93,1.06,1.84,2.31,3.44,3.76,4.81,1.45,1.37,3.08,2.44,4.88,3.22s3.8,1.17,5.98,1.17c2.38,0,4.47-.51,6.27-1.54s3.37-2.38,4.69-4.08c1.32-1.69,2.41-3.63,3.27-5.81.86-2.18,1.55-4.44,2.08-6.76.52-2.33.89-4.63,1.1-6.91.21-2.28.32-4.38.32-6.3,0-2.25-.17-4.5-.51-6.76s-.87-4.44-1.59-6.54c-.72-2.1-1.6-4.07-2.66-5.91-1.06-1.84-2.31-3.43-3.76-4.79-1.45-1.35-3.08-2.42-4.88-3.2s-3.8-1.17-5.98-1.17c-2.38,0-4.47.5-6.27,1.51s-3.37,2.36-4.69,4.05-2.41,3.63-3.27,5.81c-.86,2.18-1.55,4.43-2.08,6.74-.52,2.31-.89,4.61-1.1,6.91-.21,2.29-.32,4.39-.32,6.27Z"/>
    <path class="st2" d="M1638.16,788.18c0-1.33-.1-2.46-.29-3.37s-.5-1.64-.9-2.17c-.41-.54-.92-.92-1.54-1.15-.62-.23-1.35-.34-2.2-.34-1.17,0-2.57.16-4.2.49-1.63.33-3.48.76-5.57,1.32l-.73-3.52c2.31-.81,4.53-1.55,6.67-2.22,2.13-.67,4.09-1.25,5.88-1.73,1.79-.49,3.37-.86,4.74-1.12s2.44-.39,3.22-.39c1.89,0,3.36.56,4.42,1.68,1.06,1.12,1.59,3.05,1.59,5.79,0,.33-.03,1.08-.1,2.27-.07,1.19-.16,2.69-.27,4.52-.11,1.82-.25,3.91-.42,6.27-.16,2.36-.35,4.88-.56,7.54-.21,2.67-.45,5.43-.71,8.28-.26,2.85-.54,5.69-.83,8.52l.29.05c2.47-8.4,5.13-15.49,7.96-21.26s5.71-10.47,8.64-14.06,5.84-6.19,8.74-7.79c2.9-1.59,5.66-2.39,8.3-2.39,1.82,0,3.58.34,5.27,1.03,1.69.68,3.2,1.77,4.52,3.27s2.37,3.43,3.15,5.79,1.17,5.22,1.17,8.57c0,.98-.06,2.29-.17,3.93-.11,1.64-.25,3.47-.42,5.49-.16,2.02-.35,4.16-.56,6.42-.21,2.26-.4,4.48-.56,6.67-.16,2.18-.3,4.26-.42,6.23-.11,1.97-.17,3.69-.17,5.15,0,2.54.11,4.61.32,6.2.21,1.6.56,2.86,1.05,3.78s1.14,1.56,1.95,1.9c.81.34,1.81.51,2.98.51,1.69,0,3.45-.24,5.27-.71,1.82-.47,3.66-1.13,5.52-1.98l.93,2.54c-1.17.94-2.65,1.9-4.44,2.88-1.79.98-3.67,1.87-5.64,2.69-1.97.81-3.93,1.47-5.88,1.98-1.95.5-3.68.76-5.18.76-1.76,0-3.14-.47-4.15-1.42-1.01-.94-1.77-2.23-2.27-3.86-.5-1.63-.83-3.53-.98-5.71-.15-2.18-.22-4.52-.22-7.03,0-3.06.11-6.21.32-9.45.21-3.24.45-6.32.71-9.25.26-2.93.5-5.59.71-7.98.21-2.39.32-4.3.32-5.74,0-3.81-.72-6.62-2.15-8.42-1.43-1.81-3.34-2.71-5.71-2.71-1.89,0-3.87.8-5.96,2.39-2.08,1.59-4.16,3.78-6.23,6.57-2.07,2.78-4.05,6.07-5.96,9.86s-3.62,7.89-5.15,12.3c-1.53,4.41-2.8,9.03-3.81,13.84-1.01,4.82-1.64,9.64-1.9,14.45l-10.21,1.27-.78-.05c.26-3.09.5-6.46.73-10.11.23-3.65.44-7.35.63-11.11s.37-7.49.51-11.18.28-7.15.39-10.35c.11-3.21.2-6.08.24-8.62s.07-4.54.07-6.01Z"/>
    <path class="st2" d="M1725.96,846.34c-1.14,0-2.17-.24-3.1-.71-.93-.47-1.71-1.1-2.34-1.88s-1.12-1.68-1.46-2.69c-.34-1.01-.51-2.03-.51-3.08,0-1.5.25-2.82.76-3.96.5-1.14,1.16-2.09,1.95-2.86.8-.76,1.68-1.34,2.66-1.73s1.94-.59,2.88-.59c1.11,0,2.12.21,3.05.63.93.42,1.72.99,2.37,1.68.65.7,1.16,1.53,1.51,2.49.36.96.54,1.98.54,3.05,0,1.17-.2,2.33-.59,3.47-.39,1.14-.95,2.17-1.68,3.08-.73.91-1.61,1.65-2.64,2.22-1.03.57-2.16.85-3.39.85Z"/>
    <path class="st2" d="M1758.77,846.34c-1.14,0-2.17-.24-3.1-.71-.93-.47-1.71-1.1-2.34-1.88s-1.12-1.68-1.46-2.69c-.34-1.01-.51-2.03-.51-3.08,0-1.5.25-2.82.76-3.96.5-1.14,1.16-2.09,1.95-2.86.8-.76,1.68-1.34,2.66-1.73s1.94-.59,2.88-.59c1.11,0,2.12.21,3.05.63.93.42,1.72.99,2.37,1.68.65.7,1.16,1.53,1.51,2.49.36.96.54,1.98.54,3.05,0,1.17-.2,2.33-.59,3.47-.39,1.14-.95,2.17-1.68,3.08-.73.91-1.61,1.65-2.64,2.22-1.03.57-2.16.85-3.39.85Z"/>
    <path class="st2" d="M1791.58,846.34c-1.14,0-2.17-.24-3.1-.71-.93-.47-1.71-1.1-2.34-1.88s-1.12-1.68-1.46-2.69c-.34-1.01-.51-2.03-.51-3.08,0-1.5.25-2.82.76-3.96.5-1.14,1.16-2.09,1.95-2.86.8-.76,1.68-1.34,2.66-1.73s1.94-.59,2.88-.59c1.11,0,2.12.21,3.05.63.93.42,1.72.99,2.37,1.68.65.7,1.16,1.53,1.51,2.49.36.96.54,1.98.54,3.05,0,1.17-.2,2.33-.59,3.47-.39,1.14-.95,2.17-1.68,3.08-.73.91-1.61,1.65-2.64,2.22-1.03.57-2.16.85-3.39.85Z"/>
  </g>
  <g>
    <g id="g39">
      <polygon id="rect12" class="st1" points="104.63 956.39 285.87 960.06 286.41 1080 105.09 1076.33 104.63 956.39"/>
      <path id="path13" class="st1" d="M194.75,827.38l120.54,133.28-240.08-4.87,119.54-128.41Z"/>
      <path id="path14" class="st3" d="M147.39,984.47l90.66,1.87.27,65.44-90.66-1.87-.27-65.44h0Z"/>
      <path id="path15" class="st1" d="M147.39,984.47v-3.34l-3.34-.07v3.34l3.34.07ZM238.04,986.34h3.34v-3.27h-3.34v3.27ZM238.31,1051.72v3.34l3.34.07v-3.34l-3.34-.07ZM147.65,1049.91h-3.34v3.27h3.34v-3.27ZM147.39,984.47v3.34l90.66,1.87v-6.67l-90.66-1.87v3.34ZM238.04,986.34h-3.34l.27,65.37h3.34l3.34.13-.27-65.44h-3.34v-.07ZM238.31,1051.72v-3.34l-90.66-1.87v6.67l90.66,1.87v-3.34ZM147.65,1049.91h3.34l-.27-65.37h-3.34l-3.34-.13.27,65.44h3.34v.07ZM147.52,1014.49v3.34l90.66,1.87v-6.67l-90.66-1.87v3.34ZM192.75,985.41h-3.34l.27,65.37h3.34l3.34.13-.27-65.44h-3.34v-.07Z"/>
    </g>
    <g id="g391" data-name="g39">
      <polygon id="rect121" data-name="rect12" class="st1" points="362.1 947.51 523.68 951.29 524.15 1075 362.51 1071.22 362.1 947.51"/>
      <path id="path131" data-name="path13" class="st1" d="M442.44,814.44l107.46,137.47-214.03-5.02,106.57-132.45Z"/>
      <path id="path141" data-name="path14" class="st3" d="M400.22,976.47l80.82,1.93.24,67.5-80.82-1.93-.24-67.5h0Z"/>
      <path id="path151" data-name="path15" class="st1" d="M400.22,976.47v-3.44l-2.97-.07v3.44l2.97.07ZM481.04,978.4h2.97v-3.37h-2.97v3.37ZM481.27,1045.83v3.44l2.97.07v-3.44l-2.97-.07ZM400.45,1043.97h-2.97v3.37h2.97v-3.37ZM400.22,976.47v3.44l80.82,1.93v-6.88l-80.82-1.93v3.44ZM481.04,978.4h-2.97l.24,67.43h2.97l2.97.14-.24-67.5h-2.97v-.07ZM481.27,1045.83v-3.44l-80.82-1.93v6.88l80.82,1.93v-3.44ZM400.45,1043.97h2.97l-.24-67.43h-2.97l-2.97-.14.24,67.5h2.97v.07ZM400.34,1007.44v3.44l80.82,1.93v-6.88l-80.82-1.93v3.44ZM440.66,977.44h-2.97l.24,67.43h2.97l2.97.14-.24-67.5h-2.97v-.07Z"/>
    </g>
    <g id="g392" data-name="g39">
      <polygon id="rect122" data-name="rect12" class="st1" points="595.57 963.15 750.12 966.53 750.58 1076.98 595.97 1073.6 595.57 963.15"/>
      <path id="path132" data-name="path13" class="st1" d="M672.42,844.34l102.79,122.74-204.73-4.48,101.94-118.26Z"/>
      <path id="path142" data-name="path14" class="st3" d="M632.03,989.01l77.31,1.72.23,60.26-77.31-1.72-.23-60.26h0Z"/>
      <path id="path152" data-name="path15" class="st1" d="M632.03,989.01v-3.07l-2.84-.06v3.07l2.84.06ZM709.34,990.73h2.84v-3.01h-2.84v3.01ZM709.56,1050.93v3.07l2.84.06v-3.07l-2.84-.06ZM632.26,1049.27h-2.84v3.01h2.84v-3.01ZM632.03,989.01v3.07l77.31,1.72v-6.14l-77.31-1.72v3.07ZM709.34,990.73h-2.84l.23,60.2h2.84l2.84.12-.23-60.26h-2.84v-.06ZM709.56,1050.93v-3.07l-77.31-1.72v6.14l77.31,1.72v-3.07ZM632.26,1049.27h2.84l-.23-60.2h-2.84l-2.84-.12.23,60.26h2.84v.06ZM632.14,1016.65v3.07l77.31,1.72v-6.14l-77.31-1.72v3.07ZM670.71,989.87h-2.84l.23,60.2h2.84l2.84.12-.23-60.26h-2.84v-.06Z"/>
    </g>
  </g>
  <path class="st4" d="M1902,18v1044H18V18h1884M1920,0H0v1080h1920V0h0Z"/>
</svg>