<svg width="375" height="118" viewBox="0 0 375 118" fill="none" xmlns="http://www.w3.org/2000/svg">
<path d="M182.5 2C177.5 35.5 104.748 114.103 -7 115" stroke="#7B3333" stroke-width="3"/>
<circle cx="24" cy="113" r="5" fill="#7B3333"/>
<circle cx="63" cy="103" r="5" fill="#7B3333"/>
<circle cx="95" cy="90" r="5" fill="#7B3333"/>
<circle cx="126" cy="71" r="5" fill="#7B3333"/>
<circle cx="154" cy="48" r="5" fill="#7B3333"/>
<path d="M188 2C193 35.5 265.752 114.103 377.5 115" stroke="#7B3333" stroke-width="3"/>
<circle cx="5" cy="5" r="5" transform="matrix(-1 0 0 1 351.5 108)" fill="#7B3333"/>
<circle cx="5" cy="5" r="5" transform="matrix(-1 0 0 1 312.5 98)" fill="#7B3333"/>
<circle cx="5" cy="5" r="5" transform="matrix(-1 0 0 1 280.5 85)" fill="#7B3333"/>
<circle cx="5" cy="5" r="5" transform="matrix(-1 0 0 1 249.5 66)" fill="#7B3333"/>
<circle cx="5" cy="5" r="5" transform="matrix(-1 0 0 1 221.5 43)" fill="#7B3333"/>
<path d="M112 2C100.5 32 68 69 -3 70" stroke="#7B3333" stroke-width="3"/>
<path d="M37.132 81.1516L27.0156 66.8369L42.2041 64.3729L37.132 81.1516Z" fill="#7B3333"/>
<path d="M7.44093 86.2296L-0.670159 70.6905L14.7115 70.2799L7.44093 86.2296Z" fill="#7B3333"/>
<path d="M62.2183 73.8009L49.1017 62.173L63.3269 56.3073L62.2183 73.8009Z" fill="#7B3333"/>
<path d="M87.53 59.2113L72.0486 50.9908L84.4975 41.947L87.53 59.2113Z" fill="#7B3333"/>
<path d="M122.797 16.0489L105.316 17.3414L111.032 3.05523L122.797 16.0489Z" fill="#7B3333"/>
<path d="M108.711 39.4329L91.7554 34.9888L101.794 23.327L108.711 39.4329Z" fill="#7B3333"/>
<path d="M263.097 2C274.597 32 307.097 69 378.097 70" stroke="#7B3333" stroke-width="3"/>
<path d="M337.965 81.1516L348.082 66.8369L332.893 64.3729L337.965 81.1516Z" fill="#7B3333"/>
<path d="M367.656 86.2296L375.768 70.6905L360.386 70.2799L367.656 86.2296Z" fill="#7B3333"/>
<path d="M312.879 73.8009L325.996 62.173L311.77 56.3073L312.879 73.8009Z" fill="#7B3333"/>
<path d="M287.567 59.2113L303.049 50.9908L290.6 41.947L287.567 59.2113Z" fill="#7B3333"/>
<path d="M252.3 16.0489L269.781 17.3414L264.065 3.05523L252.3 16.0489Z" fill="#7B3333"/>
<path d="M266.386 39.4329L283.342 34.9888L273.304 23.327L266.386 39.4329Z" fill="#7B3333"/>
</svg>
