<svg width="375" height="641" viewBox="0 0 375 641" fill="none" xmlns="http://www.w3.org/2000/svg">
<rect x="-78" y="55.2728" width="530" height="564" rx="215.5" fill="white"/>
<path d="M38.4062 422.198L90.5328 446.214L33.2749 599.296L-44.1181 556.057L38.4062 422.198Z" fill="#C5FBDB"/>
<path d="M44.5087 436.384L54.9341 441.187L50.1309 451.612L39.7056 446.809L44.5087 436.384Z" fill="white"/>
<path d="M64.3168 445.51L74.7422 450.313L69.939 460.738L59.5137 455.935L64.3168 445.51Z" fill="white"/>
<path d="M36.8237 453.064L47.249 457.868L42.4459 468.293L32.0206 463.49L36.8237 453.064Z" fill="white"/>
<path d="M56.6318 462.19L67.0571 466.993L62.254 477.419L51.8287 472.616L56.6318 462.19Z" fill="white"/>
<path d="M29.1387 469.745L39.564 474.548L34.7609 484.973L24.3356 480.17L29.1387 469.745Z" fill="white"/>
<path d="M48.9468 478.871L59.3721 483.674L54.569 494.099L44.1437 489.296L48.9468 478.871Z" fill="white"/>
<path d="M21.4537 486.425L31.879 491.229L27.0759 501.654L16.6506 496.851L21.4537 486.425Z" fill="white"/>
<path d="M41.2618 495.551L51.6871 500.354L46.884 510.78L36.4587 505.977L41.2618 495.551Z" fill="white"/>
<path d="M102.436 464.124L139.064 468.438L128.909 628.55L72.9923 615.582L102.436 464.124Z" fill="#C5FBDB"/>
<path d="M107.47 484.445L114.795 485.308L113.447 496.754L106.122 495.891L107.47 484.445Z" fill="white"/>
<path d="M121.388 486.084L128.714 486.947L127.366 498.393L120.04 497.531L121.388 486.084Z" fill="white"/>
<path d="M105.313 502.759L112.638 503.622L111.29 515.068L103.965 514.205L105.313 502.759Z" fill="white"/>
<path d="M119.231 504.398L126.557 505.261L125.209 516.707L117.883 515.844L119.231 504.398Z" fill="white"/>
<path d="M103.156 521.073L110.481 521.936L109.133 533.382L101.808 532.519L103.156 521.073Z" fill="white"/>
<path d="M117.074 522.712L124.4 523.575L123.052 535.021L115.726 534.158L117.074 522.712Z" fill="white"/>
<path d="M100.999 539.387L108.324 540.249L106.976 551.696L99.6507 550.833L100.999 539.387Z" fill="white"/>
<path d="M114.917 541.026L122.243 541.889L120.895 553.335L113.569 552.472L114.917 541.026Z" fill="white"/>
<path d="M299.62 427.622L350.1 406.956L430.629 564.071L353.647 595.587L299.62 427.622Z" fill="#C5FBDB"/>
<path d="M315.975 445.976L328.595 440.809L333.761 453.429L321.141 458.596L315.975 445.976Z" fill="white"/>
<path d="M339.953 436.16L352.573 430.993L357.74 443.613L345.119 448.78L339.953 436.16Z" fill="white"/>
<path d="M324.241 466.168L336.861 461.001L342.028 473.621L329.408 478.788L324.241 466.168Z" fill="white"/>
<path d="M348.219 456.352L360.839 451.185L366.006 463.805L353.386 468.972L348.219 456.352Z" fill="white"/>
<path d="M332.508 486.36L345.128 481.193L350.294 493.814L337.674 498.98L332.508 486.36Z" fill="white"/>
<path d="M356.486 476.544L369.106 471.377L374.272 483.997L361.652 489.164L356.486 476.544Z" fill="white"/>
<path d="M340.774 506.552L353.394 501.386L358.56 514.006L345.94 519.172L340.774 506.552Z" fill="white"/>
<path d="M364.752 496.736L377.372 491.569L382.538 504.189L369.918 509.356L364.752 496.736Z" fill="white"/>
<path d="M226.964 471.664L281.762 458.685L324.952 626.819L259.661 640.937L226.964 471.664Z" fill="#C5FBDB"/>
<path d="M238.785 481.178L251.843 478.354L254.873 492.366L241.815 495.19L238.785 481.178Z" fill="white"/>
<path d="M263.596 475.813L276.654 472.99L279.684 487.002L266.625 489.825L263.596 475.813Z" fill="white"/>
<path d="M243.633 503.597L256.691 500.774L259.721 514.786L246.663 517.609L243.633 503.597Z" fill="white"/>
<path d="M268.443 498.232L281.502 495.409L284.531 509.421L271.473 512.244L268.443 498.232Z" fill="white"/>
<path d="M248.481 526.017L261.539 523.193L264.569 537.205L251.51 540.029L248.481 526.017Z" fill="white"/>
<path d="M273.291 520.652L286.349 517.828L289.379 531.84L276.321 534.664L273.291 520.652Z" fill="white"/>
<path d="M253.328 548.436L266.386 545.612L269.416 559.624L256.358 562.448L253.328 548.436Z" fill="white"/>
<path d="M278.139 543.071L291.197 540.247L294.227 554.259L281.169 557.083L278.139 543.071Z" fill="white"/>
<path d="M156 497.273H212V634.273H156V497.273Z" fill="#C5FBDB"/>
<path d="M167.2 507.463H178.4V518.785H167.2V507.463Z" fill="white"/>
<path d="M188.48 507.463H199.68V518.785H188.48V507.463Z" fill="white"/>
<path d="M167.2 525.579H178.4V536.901H167.2V525.579Z" fill="white"/>
<path d="M188.48 525.579H199.68V536.901H188.48V525.579Z" fill="white"/>
<path d="M167.2 543.694H178.4V555.017H167.2V543.694Z" fill="white"/>
<path d="M188.48 543.694H199.68V555.017H188.48V543.694Z" fill="white"/>
<path d="M167.2 561.81H178.4V573.132H167.2V561.81Z" fill="white"/>
<path d="M188.48 561.81H199.68V573.132H188.48V561.81Z" fill="white"/>
<path d="M351.866 196.558L303.216 174.144L356.655 31.2728L428.885 71.6278L351.866 196.558Z" fill="#C5FBDB"/>
<path d="M346.17 183.318L336.44 178.835L340.923 169.105L350.653 173.588L346.17 183.318Z" fill="white"/>
<path d="M327.684 174.801L317.954 170.318L322.436 160.588L332.166 165.071L327.684 174.801Z" fill="white"/>
<path d="M353.343 167.75L343.613 163.268L348.096 153.538L357.826 158.02L353.343 167.75Z" fill="white"/>
<path d="M334.856 159.233L325.126 154.75L329.609 145.02L339.339 149.503L334.856 159.233Z" fill="white"/>
<path d="M360.515 152.182L350.785 147.7L355.268 137.97L364.998 142.453L360.515 152.182Z" fill="white"/>
<path d="M342.028 143.665L332.298 139.183L336.781 129.453L346.511 133.935L342.028 143.665Z" fill="white"/>
<path d="M367.688 136.615L357.958 132.132L362.44 122.402L372.17 126.885L367.688 136.615Z" fill="white"/>
<path d="M349.201 128.097L339.471 123.615L343.954 113.885L353.683 118.368L349.201 128.097Z" fill="white"/>
<path d="M277.105 166.615L241.676 162.442L251.499 7.57116L305.585 20.1154L277.105 166.615Z" fill="#C5FBDB"/>
<path d="M272.236 146.959L265.15 146.125L266.454 135.053L273.54 135.888L272.236 146.959Z" fill="white"/>
<path d="M258.773 145.374L251.687 144.539L252.991 133.468L260.077 134.302L258.773 145.374Z" fill="white"/>
<path d="M274.322 129.245L267.237 128.41L268.541 117.339L275.627 118.173L274.322 129.245Z" fill="white"/>
<path d="M260.86 127.659L253.774 126.825L255.078 115.753L262.164 116.588L260.86 127.659Z" fill="white"/>
<path d="M276.409 111.531L269.323 110.696L270.627 99.6245L277.713 100.459L276.409 111.531Z" fill="white"/>
<path d="M262.946 109.945L255.86 109.11L257.164 98.0388L264.25 98.8734L262.946 109.945Z" fill="white"/>
<path d="M278.495 93.8162L271.41 92.9817L272.714 81.9102L279.799 82.7448L278.495 93.8162Z" fill="white"/>
<path d="M265.032 92.2306L257.947 91.396L259.251 80.3245L266.336 81.1591L265.032 92.2306Z" fill="white"/>
<path d="M76.5177 198.89L25.8415 219.636L-55 61.9103L22.2812 30.2728L76.5177 198.89Z" fill="#C5FBDB"/>
<path d="M60.0993 180.464L47.4302 185.651L42.2437 172.982L54.9128 167.795L60.0993 180.464Z" fill="white"/>
<path d="M36.0281 190.319L23.359 195.505L18.1725 182.836L30.8416 177.65L36.0281 190.319Z" fill="white"/>
<path d="M51.8009 160.194L39.1318 165.38L33.9454 152.711L46.6144 147.525L51.8009 160.194Z" fill="white"/>
<path d="M27.7297 170.048L15.0607 175.235L9.87418 162.566L22.5432 157.379L27.7297 170.048Z" fill="white"/>
<path d="M43.5025 139.923L30.8335 145.11L25.647 132.441L38.316 127.254L43.5025 139.923Z" fill="white"/>
<path d="M19.4313 149.778L6.76229 154.964L1.57581 142.295L14.2449 137.109L19.4313 149.778Z" fill="white"/>
<path d="M35.2042 119.653L22.5351 124.84L17.3486 112.17L30.0177 106.984L35.2042 119.653Z" fill="white"/>
<path d="M11.133 129.507L-1.53607 134.694L-6.72255 122.025L5.9465 116.838L11.133 129.507Z" fill="white"/>
<path d="M155.326 163.651L102.348 176.199L60.5927 13.649L123.715 1.2571e-05L155.326 163.651Z" fill="#C5FBDB"/>
<path d="M143.898 154.453L131.273 157.183L128.344 143.636L140.969 140.906L143.898 154.453Z" fill="white"/>
<path d="M119.911 159.639L107.287 162.369L104.358 148.822L116.982 146.093L119.911 159.639Z" fill="white"/>
<path d="M139.211 132.778L126.587 135.508L123.657 121.961L136.282 119.231L139.211 132.778Z" fill="white"/>
<path d="M115.225 137.965L102.6 140.694L99.6709 127.148L112.295 124.418L115.225 137.965Z" fill="white"/>
<path d="M134.524 111.103L121.9 113.833L118.971 100.286L131.595 97.5566L134.524 111.103Z" fill="white"/>
<path d="M110.538 116.29L97.9133 119.02L94.9841 105.473L107.609 102.743L110.538 116.29Z" fill="white"/>
<path d="M129.838 89.4286L117.213 92.1584L114.284 78.6117L126.908 75.8819L129.838 89.4286Z" fill="white"/>
<path d="M105.851 94.6152L93.2266 97.3451L90.2974 83.7984L102.922 81.0686L105.851 94.6152Z" fill="white"/>
<path d="M225 146.273L166 146.273L166 1.27278L225 1.27278L225 146.273Z" fill="#C5FBDB"/>
<path d="M213.2 135.488L201.4 135.488L201.4 123.504L213.2 123.504L213.2 135.488Z" fill="white"/>
<path d="M190.78 135.488L178.98 135.488L178.98 123.504L190.78 123.504L190.78 135.488Z" fill="white"/>
<path d="M213.2 116.314L201.4 116.314L201.4 104.331L213.2 104.331L213.2 116.314Z" fill="white"/>
<path d="M190.78 116.314L178.98 116.314L178.98 104.331L190.78 104.331L190.78 116.314Z" fill="white"/>
<path d="M213.2 97.1405L201.4 97.1405L201.4 85.1571L213.2 85.1571L213.2 97.1405Z" fill="white"/>
<path d="M190.78 97.1405L178.98 97.1405L178.98 85.1571L190.78 85.1571L190.78 97.1405Z" fill="white"/>
<path d="M213.2 77.967L201.4 77.967L201.4 65.9835L213.2 65.9835L213.2 77.967Z" fill="white"/>
<path d="M190.78 77.967L178.98 77.967L178.98 65.9835L190.78 65.9835L190.78 77.967Z" fill="white"/>
</svg>
