<svg width="375" height="712" viewBox="0 0 375 712" fill="none" xmlns="http://www.w3.org/2000/svg">
<rect x="-78" y="44.0001" width="530" height="624" rx="215.5" fill="white"/>
<path d="M38.4062 492.925L90.5328 516.941L33.2749 670.024L-44.1181 626.784L38.4062 492.925Z" fill="#C5FBDB"/>
<path d="M44.5087 507.111L54.9341 511.914L50.1309 522.34L39.7056 517.536L44.5087 507.111Z" fill="white"/>
<path d="M64.3168 516.237L74.7422 521.04L69.939 531.465L59.5137 526.662L64.3168 516.237Z" fill="white"/>
<path d="M36.8237 523.792L47.249 528.595L42.4459 539.02L32.0206 534.217L36.8237 523.792Z" fill="white"/>
<path d="M56.6318 532.918L67.0571 537.721L62.254 548.146L51.8287 543.343L56.6318 532.918Z" fill="white"/>
<path d="M29.1387 540.472L39.564 545.275L34.7609 555.701L24.3356 550.897L29.1387 540.472Z" fill="white"/>
<path d="M48.9468 549.598L59.3721 554.401L54.569 564.826L44.1437 560.023L48.9468 549.598Z" fill="white"/>
<path d="M21.4537 557.153L31.879 561.956L27.0759 572.381L16.6506 567.578L21.4537 557.153Z" fill="white"/>
<path d="M41.2618 566.279L51.6871 571.082L46.884 581.507L36.4587 576.704L41.2618 566.279Z" fill="white"/>
<path d="M102.436 534.851L139.064 539.165L128.909 699.278L72.9923 686.309L102.436 534.851Z" fill="#C5FBDB"/>
<path d="M107.47 555.172L114.795 556.035L113.447 567.481L106.122 566.618L107.47 555.172Z" fill="white"/>
<path d="M121.388 556.812L128.714 557.674L127.366 569.121L120.04 568.258L121.388 556.812Z" fill="white"/>
<path d="M105.313 573.486L112.638 574.349L111.29 585.795L103.965 584.932L105.313 573.486Z" fill="white"/>
<path d="M119.231 575.126L126.557 575.988L125.209 587.434L117.883 586.572L119.231 575.126Z" fill="white"/>
<path d="M103.156 591.8L110.481 592.663L109.133 604.109L101.808 603.246L103.156 591.8Z" fill="white"/>
<path d="M117.074 593.439L124.4 594.302L123.052 605.748L115.726 604.885L117.074 593.439Z" fill="white"/>
<path d="M100.999 610.114L108.324 610.977L106.976 622.423L99.6507 621.56L100.999 610.114Z" fill="white"/>
<path d="M114.917 611.753L122.243 612.616L120.895 624.062L113.569 623.199L114.917 611.753Z" fill="white"/>
<path d="M299.62 498.349L350.1 477.683L430.629 634.799L353.647 666.314L299.62 498.349Z" fill="#C5FBDB"/>
<path d="M315.975 516.703L328.595 511.537L333.761 524.157L321.141 529.323L315.975 516.703Z" fill="white"/>
<path d="M339.953 506.887L352.573 501.72L357.74 514.34L345.119 519.507L339.953 506.887Z" fill="white"/>
<path d="M324.241 536.895L336.861 531.729L342.028 544.349L329.408 549.515L324.241 536.895Z" fill="white"/>
<path d="M348.219 527.079L360.839 521.912L366.006 534.532L353.386 539.699L348.219 527.079Z" fill="white"/>
<path d="M332.508 557.087L345.128 551.921L350.294 564.541L337.674 569.707L332.508 557.087Z" fill="white"/>
<path d="M356.486 547.271L369.106 542.104L374.272 554.725L361.652 559.891L356.486 547.271Z" fill="white"/>
<path d="M340.774 577.279L353.394 572.113L358.56 584.733L345.94 589.899L340.774 577.279Z" fill="white"/>
<path d="M364.752 567.463L377.372 562.297L382.538 574.917L369.918 580.083L364.752 567.463Z" fill="white"/>
<path d="M226.964 542.391L281.762 529.412L324.952 697.546L259.661 711.664L226.964 542.391Z" fill="#C5FBDB"/>
<path d="M238.785 551.905L251.843 549.082L254.873 563.094L241.815 565.917L238.785 551.905Z" fill="white"/>
<path d="M263.596 546.54L276.654 543.717L279.684 557.729L266.625 560.552L263.596 546.54Z" fill="white"/>
<path d="M243.633 574.324L256.691 571.501L259.721 585.513L246.663 588.337L243.633 574.324Z" fill="white"/>
<path d="M268.443 568.96L281.502 566.136L284.531 580.148L271.473 582.972L268.443 568.96Z" fill="white"/>
<path d="M248.481 596.744L261.539 593.92L264.569 607.932L251.51 610.756L248.481 596.744Z" fill="white"/>
<path d="M273.291 591.379L286.349 588.555L289.379 602.567L276.321 605.391L273.291 591.379Z" fill="white"/>
<path d="M253.328 619.163L266.386 616.339L269.416 630.351L256.358 633.175L253.328 619.163Z" fill="white"/>
<path d="M278.139 613.798L291.197 610.975L294.227 624.987L281.169 627.81L278.139 613.798Z" fill="white"/>
<path d="M156 568H212V705H156V568Z" fill="#C5FBDB"/>
<path d="M167.2 578.19H178.4V589.512H167.2V578.19Z" fill="white"/>
<path d="M188.48 578.19H199.68V589.512H188.48V578.19Z" fill="white"/>
<path d="M167.2 596.306H178.4V607.628H167.2V596.306Z" fill="white"/>
<path d="M188.48 596.306H199.68V607.628H188.48V596.306Z" fill="white"/>
<path d="M167.2 614.421H178.4V625.744H167.2V614.421Z" fill="white"/>
<path d="M188.48 614.421H199.68V625.744H188.48V614.421Z" fill="white"/>
<path d="M167.2 632.537H178.4V643.859H167.2V632.537Z" fill="white"/>
<path d="M188.48 632.537H199.68V643.859H188.48V632.537Z" fill="white"/>
<path d="M351.866 196.558L303.216 174.144L356.655 31.2728L428.885 71.6278L351.866 196.558Z" fill="#C5FBDB"/>
<path d="M346.17 183.318L336.44 178.835L340.923 169.105L350.653 173.588L346.17 183.318Z" fill="white"/>
<path d="M327.684 174.801L317.954 170.318L322.436 160.588L332.166 165.071L327.684 174.801Z" fill="white"/>
<path d="M353.343 167.75L343.613 163.268L348.096 153.538L357.826 158.02L353.343 167.75Z" fill="white"/>
<path d="M334.856 159.233L325.126 154.75L329.609 145.02L339.339 149.503L334.856 159.233Z" fill="white"/>
<path d="M360.515 152.182L350.785 147.7L355.268 137.97L364.998 142.453L360.515 152.182Z" fill="white"/>
<path d="M342.028 143.665L332.298 139.182L336.781 129.453L346.511 133.935L342.028 143.665Z" fill="white"/>
<path d="M367.688 136.615L357.958 132.132L362.44 122.402L372.17 126.885L367.688 136.615Z" fill="white"/>
<path d="M349.201 128.097L339.471 123.615L343.954 113.885L353.683 118.368L349.201 128.097Z" fill="white"/>
<path d="M277.105 166.615L241.676 162.442L251.499 7.57118L305.585 20.1154L277.105 166.615Z" fill="#C5FBDB"/>
<path d="M272.236 146.959L265.15 146.125L266.454 135.053L273.54 135.888L272.236 146.959Z" fill="white"/>
<path d="M258.773 145.374L251.687 144.539L252.991 133.468L260.077 134.302L258.773 145.374Z" fill="white"/>
<path d="M274.322 129.245L267.237 128.41L268.541 117.339L275.627 118.173L274.322 129.245Z" fill="white"/>
<path d="M260.86 127.659L253.774 126.825L255.078 115.753L262.164 116.588L260.86 127.659Z" fill="white"/>
<path d="M276.409 111.531L269.323 110.696L270.627 99.6246L277.713 100.459L276.409 111.531Z" fill="white"/>
<path d="M262.946 109.945L255.86 109.11L257.164 98.0389L264.25 98.8734L262.946 109.945Z" fill="white"/>
<path d="M278.495 93.8163L271.41 92.9817L272.714 81.9102L279.799 82.7448L278.495 93.8163Z" fill="white"/>
<path d="M265.032 92.2306L257.947 91.396L259.251 80.3245L266.336 81.1591L265.032 92.2306Z" fill="white"/>
<path d="M76.5177 198.89L25.8415 219.636L-55 61.9103L22.2812 30.2728L76.5177 198.89Z" fill="#C5FBDB"/>
<path d="M60.0993 180.464L47.4302 185.651L42.2437 172.982L54.9128 167.795L60.0993 180.464Z" fill="white"/>
<path d="M36.0281 190.319L23.359 195.505L18.1725 182.836L30.8416 177.65L36.0281 190.319Z" fill="white"/>
<path d="M51.8009 160.194L39.1318 165.38L33.9454 152.711L46.6144 147.525L51.8009 160.194Z" fill="white"/>
<path d="M27.7297 170.048L15.0607 175.235L9.87418 162.566L22.5432 157.379L27.7297 170.048Z" fill="white"/>
<path d="M43.5025 139.924L30.8335 145.11L25.647 132.441L38.316 127.254L43.5025 139.924Z" fill="white"/>
<path d="M19.4313 149.778L6.76229 154.964L1.57581 142.295L14.2449 137.109L19.4313 149.778Z" fill="white"/>
<path d="M35.2042 119.653L22.5351 124.84L17.3486 112.171L30.0177 106.984L35.2042 119.653Z" fill="white"/>
<path d="M11.133 129.507L-1.53607 134.694L-6.72255 122.025L5.9465 116.838L11.133 129.507Z" fill="white"/>
<path d="M155.326 163.651L102.348 176.199L60.5927 13.649L123.715 1.2571e-05L155.326 163.651Z" fill="#C5FBDB"/>
<path d="M143.898 154.453L131.273 157.183L128.344 143.636L140.969 140.906L143.898 154.453Z" fill="white"/>
<path d="M119.911 159.639L107.287 162.369L104.358 148.822L116.982 146.093L119.911 159.639Z" fill="white"/>
<path d="M139.211 132.778L126.587 135.508L123.657 121.961L136.282 119.231L139.211 132.778Z" fill="white"/>
<path d="M115.225 137.965L102.6 140.694L99.6709 127.148L112.295 124.418L115.225 137.965Z" fill="white"/>
<path d="M134.524 111.103L121.9 113.833L118.971 100.286L131.595 97.5566L134.524 111.103Z" fill="white"/>
<path d="M110.538 116.29L97.9133 119.02L94.9841 105.473L107.609 102.743L110.538 116.29Z" fill="white"/>
<path d="M129.838 89.4286L117.213 92.1584L114.284 78.6117L126.908 75.8819L129.838 89.4286Z" fill="white"/>
<path d="M105.851 94.6152L93.2266 97.3451L90.2974 83.7984L102.922 81.0686L105.851 94.6152Z" fill="white"/>
<path d="M225 146.273L166 146.273L166 1.27282L225 1.27283L225 146.273Z" fill="#C5FBDB"/>
<path d="M213.2 135.488L201.4 135.488L201.4 123.504L213.2 123.504L213.2 135.488Z" fill="white"/>
<path d="M190.78 135.488L178.98 135.488L178.98 123.504L190.78 123.504L190.78 135.488Z" fill="white"/>
<path d="M213.2 116.314L201.4 116.314L201.4 104.331L213.2 104.331L213.2 116.314Z" fill="white"/>
<path d="M190.78 116.314L178.98 116.314L178.98 104.331L190.78 104.331L190.78 116.314Z" fill="white"/>
<path d="M213.2 97.1406L201.4 97.1406L201.4 85.1571L213.2 85.1571L213.2 97.1406Z" fill="white"/>
<path d="M190.78 97.1406L178.98 97.1406L178.98 85.1571L190.78 85.1571L190.78 97.1406Z" fill="white"/>
<path d="M213.2 77.967L201.4 77.967L201.4 65.9836L213.2 65.9836L213.2 77.967Z" fill="white"/>
<path d="M190.78 77.967L178.98 77.967L178.98 65.9836L190.78 65.9836L190.78 77.967Z" fill="white"/>
</svg>
