<?xml version="1.0" encoding="UTF-8"?>
<svg xmlns="http://www.w3.org/2000/svg" version="1.1" xmlns:inkscape="http://www.inkscape.org/namespaces/inkscape" xmlns:sodipodi="http://sodipodi.sourceforge.net/DTD/sodipodi-0.dtd" xmlns:svg="http://www.w3.org/2000/svg" viewBox="0 0 426.89 139.44">
  <!-- Generator: Adobe Illustrator 30.6.0, SVG Export Plug-In . SVG Version: 2.1.4 Build 109)  -->
  <defs>
    <style>
      .st0 {
        fill: #b98d8d;
      }

      .st1 {
        fill: none;
        stroke: #b98d8d;
      }

      .st2 {
        fill: #7b3333;
      }
    </style>
  </defs>
  <g id="svg36" sodipodi:docname="Group 288.svg">
    <sodipodi:namedview id="namedview36" bordercolor="#000000" borderopacity="0.25" inkscape:deskcolor="#d1d1d1" inkscape:pagecheckerboard="0" inkscape:pageopacity="0.0" inkscape:showpageshadow="2" pagecolor="#ffffff"/>
    <path id="ellipse1" class="st0" d="M5.93,139.44c0-40.21,40.12-77.36,105.24-97.46,65.12-20.1,145.36-20.1,210.48,0s105.24,57.26,105.24,97.46" sodipodi:arc-type="arc" sodipodi:cx="-195.27409" sodipodi:cy="-378.45569" sodipodi:end="3.1415927" sodipodi:open="true" sodipodi:rx="210.4821" sodipodi:ry="112.54177" sodipodi:start="0" sodipodi:type="arc"/>
    <g id="g44">
      <rect id="rect1" class="st0" x="13.78" y="71.22" width="34" height="22" transform="translate(-56.18 70.17) rotate(-61.59)"/>
      <path id="path1" class="st0" d="M0,65.56l31.82-8.39-21.43,39.61L0,65.56Z"/>
      <path id="path2" class="st2" d="M21.22,87.28l8.09-14.95,10.55,5.71-8.09,14.95-10.55-5.71Z"/>
      <path id="path3" class="st1" d="M26.06,89.89l8.09-14.95M25.27,79.8l10.55,5.71M21.22,87.28l8.09-14.95,10.55,5.71-8.09,14.95-10.55-5.71Z"/>
    </g>
    <g id="g43">
      <polygon id="rect3" class="st0" points="53.88 54.57 78.24 42.52 86.6 58.43 62.24 70.48 53.88 54.57"/>
      <path id="path4" class="st0" d="M56.93,31.18l25.25,9.38-32.26,15.97,7.01-25.34Z"/>
      <path id="path5" class="st2" d="M61.51,55.35l12.18-6.03,4.56,8.68-12.18,6.03-4.56-8.68Z"/>
      <path id="path6" class="st0" d="M61.51,55.35l-.23-.44-.45.22.23.44.45-.22ZM73.69,49.32l.45-.22-.23-.44-.45.22.23.44ZM78.25,58l.23.44.45-.22-.23-.44-.45.22ZM66.07,64.03l-.45.22.23.44.45-.22-.23-.44ZM61.51,55.35l.23.44,12.18-6.03-.23-.44-.23-.44-12.18,6.03.23.44ZM73.69,49.32l-.45.22,4.56,8.68.45-.22.45-.22-4.56-8.68-.45.22ZM78.25,58l-.23-.44-12.18,6.03.23.44.23.44,12.18-6.03-.23-.44ZM66.07,64.03l.45-.22-4.56-8.68-.45.22-.45.22,4.56,8.68.45-.22ZM63.6,59.33l.23.44,12.18-6.03-.23-.44-.23-.44-12.18,6.03.23.44ZM67.6,52.34l-.45.22,4.56,8.68.45-.22.45-.22-4.56-8.68-.45.22Z"/>
    </g>
    <g id="g42">
      <polygon id="rect6" class="st0" points="94.51 33.83 120.07 24.59 126.59 41.34 101.03 50.58 94.51 33.83"/>
      <path id="path7" class="st0" d="M100.17,10.93l24.04,12.16-33.85,12.24,9.81-24.4Z"/>
      <path id="path8" class="st2" d="M102,35.46l12.78-4.62,3.56,9.14-12.78,4.62-3.56-9.14Z"/>
      <path id="path9" class="st0" d="M102,35.46l-.18-.47-.47.17.18.47.47-.17ZM114.78,30.84l.47-.17-.18-.47-.47.17.18.47ZM118.34,39.98l.18.47.47-.17-.18-.47-.47.17ZM105.56,44.6l-.47.17.18.47.47-.17-.18-.47ZM102,35.46l.18.47,12.78-4.62-.18-.47-.18-.47-12.78,4.62.18.47ZM114.78,30.84l-.47.17,3.56,9.14.47-.17.47-.17-3.56-9.14-.47.17ZM118.34,39.98l-.18-.47-12.78,4.62.18.47.18.47,12.78-4.62-.18-.47ZM105.56,44.6l.47-.17-3.56-9.14-.47.17-.47.17,3.56,9.14.47-.17ZM103.63,39.65l.18.47,12.78-4.62-.18-.47-.18-.47-12.78,4.62.18.47ZM108.39,33.15l-.47.17,3.56,9.14.47-.17.47-.17-3.56-9.14-.47.17Z"/>
    </g>
    <g id="g40">
      <polygon id="rect9" class="st0" points="192.63 20.05 219.81 19.54 220.58 37.5 193.4 38.01 192.63 20.05"/>
      <path id="path10" class="st0" d="M205.38.2l18.84,19.26-35.99.67L205.38.2Z"/>
      <path id="path11" class="st2" d="M199.2,24.01l13.59-.25.42,9.8-13.59.25-.42-9.8Z"/>
      <path id="path12" class="st0" d="M199.2,24.01l-.02-.5h-.5s.02.51.02.51h.5ZM212.79,23.76h.5s-.02-.51-.02-.51h-.5s.02.51.02.51ZM213.21,33.55l.02.5h.5s-.02-.51-.02-.51h-.5ZM199.62,33.81h-.5s.02.51.02.51h.5s-.02-.51-.02-.51ZM199.2,24.01l.02.5,13.59-.25-.02-.5-.02-.5-13.59.25.02.5ZM212.79,23.76h-.5s.42,9.81.42,9.81h.5s.5-.02.5-.02l-.42-9.8h-.5ZM213.21,33.55l-.02-.5-13.59.25.02.5.02.5,13.59-.25-.02-.5ZM199.62,33.81h.5s-.42-9.81-.42-9.81h-.5s-.5.02-.5.02l.42,9.8h.5ZM199.39,28.5l.02.5,13.59-.25-.02-.5-.02-.5-13.59.25.02.5ZM205.99,23.88h-.5s.42,9.81.42,9.81h.5s.5-.02.5-.02l-.42-9.8h-.5Z"/>
    </g>
    <g id="g39">
      <polygon id="rect12" class="st0" points="240.91 19.34 268.08 19.89 268.16 37.87 240.98 37.32 240.91 19.34"/>
      <path id="path13" class="st0" d="M254.42,0l18.07,19.98-35.99-.73L254.42,0Z"/>
      <path id="path14" class="st2" d="M247.32,23.55l13.59.28.04,9.81-13.59-.28-.04-9.81Z"/>
      <path id="path15" class="st0" d="M247.32,23.55v-.5s-.5-.01-.5-.01v.5s.5.01.5.01ZM260.91,23.83h.5s0-.49,0-.49h-.5s0,.49,0,.49ZM260.95,33.63v.5s.5.01.5.01v-.5s-.5-.01-.5-.01ZM247.36,33.36h-.5s0,.49,0,.49h.5s0-.49,0-.49ZM247.32,23.55v.5s13.59.28,13.59.28v-.5s0-.5,0-.5l-13.59-.28v.5ZM260.91,23.83h-.5s.04,9.8.04,9.8h.5s.5.02.5.02l-.04-9.81h-.5ZM260.95,33.63v-.5s-13.59-.28-13.59-.28v.5s0,.5,0,.5l13.59.28v-.5ZM247.36,33.36h.5s-.04-9.8-.04-9.8h-.5s-.5-.02-.5-.02l.04,9.81h.5ZM247.34,28.05v.5s13.59.28,13.59.28v-.5s0-.5,0-.5l-13.59-.28v.5ZM254.12,23.69h-.5s.04,9.8.04,9.8h.5s.5.02.5.02l-.04-9.81h-.5Z"/>
    </g>
    <g id="g37">
      <polygon id="rect15" class="st0" points="360.5 48.86 385.16 56.08 379.89 70.98 355.23 63.76 360.5 48.86"/>
      <path id="path16" class="st0" d="M378.59,36.22l10.58,21.03-32.66-9.56,22.09-11.48Z"/>
      <path id="path17" class="st2" d="M365.11,53.95l12.33,3.61-2.88,8.13-12.33-3.61,2.88-8.13Z"/>
      <path id="path18" class="st0" d="M365.11,53.95l.17-.47-.48-.14-.17.47.48.14ZM377.44,57.56l.48.14.17-.47-.48-.14-.17.47ZM374.56,65.68l-.17.47.48.14.17-.47-.48-.14ZM362.23,62.08l-.48-.14-.17.47.48.14.17-.47ZM365.11,53.95l-.17.47,12.33,3.61.17-.47.17-.47-12.33-3.61-.17.47ZM377.44,57.56l-.48-.14-2.88,8.13.48.14.48.14,2.88-8.13-.48-.14ZM374.56,65.68l.17-.47-12.33-3.61-.17.47-.17.47,12.33,3.61.17-.47ZM362.23,62.08l.48.14,2.88-8.13-.48-.14-.48-.14-2.88,8.13.48.14ZM363.79,57.67l-.17.47,12.33,3.61.17-.47.17-.47-12.33-3.61-.17.47ZM371.27,55.75l-.48-.14-2.88,8.13.48.14.48.14,2.88-8.13-.48-.14Z"/>
    </g>
    <g id="g38">
      <polygon id="rect18" class="st0" points="305.73 30.28 332.9 30.83 332.97 48.8 305.8 48.25 305.73 30.28"/>
      <path id="path19" class="st0" d="M319.24,10.94l18.07,19.98-35.99-.73,17.92-19.25Z"/>
      <path id="path20" class="st2" d="M312.14,34.49l13.59.28.04,9.81-13.59-.28-.04-9.81Z"/>
      <path id="path21" class="st0" d="M312.14,34.49v-.5s-.5-.01-.5-.01v.5s.5.01.5.01ZM325.72,34.77h.5s0-.49,0-.49h-.5s0,.49,0,.49ZM325.76,44.57v.5s.5.01.5.01v-.5s-.5-.01-.5-.01ZM312.18,44.3h-.5s0,.49,0,.49h.5s0-.49,0-.49ZM312.14,34.49v.5s13.59.28,13.59.28v-.5s0-.5,0-.5l-13.59-.28v.5ZM325.72,34.77h-.5s.04,9.8.04,9.8h.5s.5.02.5.02l-.04-9.81h-.5ZM325.76,44.57v-.5s-13.59-.28-13.59-.28v.5s0,.5,0,.5l13.59.28v-.5ZM312.18,44.3h.5s-.04-9.8-.04-9.8h-.5s-.5-.02-.5-.02l.04,9.81h.5ZM312.16,38.99v.5s13.59.28,13.59.28v-.5s0-.5,0-.5l-13.59-.28v.5ZM318.93,34.63h-.5s.04,9.8.04,9.8h.5s.5.02.5.02l-.04-9.81h-.5Z"/>
    </g>
    <g id="g41">
      <polygon id="rect21" class="st0" points="145.97 25.66 168.6 25.95 168.15 40.35 145.52 40.06 145.97 25.66"/>
      <path id="path22" class="st0" d="M157.78,10.1l14.5,15.9-29.97-.39,15.47-15.51Z"/>
      <path id="path23" class="st2" d="M151.19,29l11.32.15-.24,7.85-11.31-.15.24-7.85Z"/>
      <path id="path24" class="st0" d="M151.19,29l.02-.5h-.5s-.02.49-.02.49h.5ZM162.51,29.15h.5s.02-.49.02-.49h-.5s-.02.49-.02.49ZM162.27,37l-.02.5h.5s.02-.49.02-.49h-.5ZM150.95,36.85h-.5s-.02.49-.02.49h.5s.02-.49.02-.49ZM151.19,29l-.02.5,11.31.15.02-.5.02-.5-11.31-.15-.02.5ZM162.51,29.15h-.5s-.24,7.85-.24,7.85h.5s.5.01.5.01l.24-7.85h-.5ZM162.27,37l.02-.5-11.31-.15-.02.5-.02.5,11.31.15.02-.5ZM150.95,36.85h.5s.24-7.85.24-7.85h-.5s-.5-.01-.5-.01l-.24,7.85h.5ZM151.08,32.6l-.02.5,11.31.15.02-.5.02-.5-11.31-.15-.02.5ZM156.85,29.07h-.5s-.24,7.85-.24,7.85h.5s.5.01.5.01l.24-7.85h-.5Z"/>
    </g>
  </g>
</svg>