<svg width="320" height="58" viewBox="0 0 320 58" fill="none" xmlns="http://www.w3.org/2000/svg">
<path d="M226.85 17.75C225.65 17.75 224.2 13.4 225.05 13.4C226.55 13.4 228.1 14.45 231.1 14.45H257.35C259.8 14.45 260.4 11.45 261.8 11.45C263 11.45 265.15 14.85 265.15 15.8C265.15 16.8 263.65 16.95 262.6 16.95H245C245.25 17.15 245.4 17.4 245.4 17.6C245.4 18.45 244.2 18.75 244.2 20.2C244.2 22.55 244.1 24.9 243.85 27.2H251.25C253.75 27.2 254.35 24.2 255.7 24.2C256.95 24.2 260.9 27.55 260.9 28.8C260.9 30.3 259.8 30.25 259.7 32.2C259.4 38.25 258.45 43.7 256.8 48.3C255.2 52.95 253.55 54.9 249.55 54.9C248 54.9 247.6 54.2 247.5 53.4C247.3 51.15 244.85 50.1 241.9 49.35L242.2 48.25C247.5 49.3 249.9 48.7 250.85 46.3C252.05 43.05 253.4 38.2 253.4 29.7H243.55C241.75 42.1 236.15 52.35 225.3 53.65C234.55 44.95 237.9 34.3 237.9 20.2C237.9 18.8 237.6 17.75 237.3 16.95H231.1C227.65 16.95 227.5 17.75 226.85 17.75ZM271.95 26.4C273.35 26.4 274.75 27.3 277.4 27.45V20.95C277.4 17.7 275.7 16.3 276.35 15.5C277.3 14.35 284.9 16.85 284.9 18.4C284.9 19.25 283.7 19.55 283.7 20.95V26.55C284.6 25.7 285.2 24.45 286.05 24.45C286.85 24.45 287.95 25.85 288.7 27.05V26.3C288.7 23.05 287 21.65 287.7 20.8C288.45 19.9 293.7 21.45 295.55 22.85H298.5V19.3H292.15C288.7 19.3 288.5 20.1 287.85 20.1C286.7 20.1 285.2 15.75 286.05 15.75C287.55 15.75 289.1 16.8 292.15 16.8H298.5V15.35C298.5 12.15 296.8 10.7 297.45 9.9C298.4 8.8 306 11.3 306 12.8C306 13.65 304.8 13.95 304.8 15.35V16.8H308.35C310.8 16.8 311.4 13.8 312.8 13.8C314 13.8 316.15 17.2 316.15 18.15C316.15 19.15 314.65 19.3 313.6 19.3H304.8V22.85H306.15C308.6 22.85 309.2 19.85 310.6 19.85C311.8 19.85 315.75 23.2 315.75 24.45C315.75 25.95 314.6 25.9 314.6 27.85V33.95C314.6 35.8 311.75 36.35 309.85 36.35H309.65C310.15 36.7 310.45 37.05 310.45 37.4C310.45 38.1 309.65 38.45 309.35 39.35C311.8 39.35 312.4 36.35 313.8 36.35C315 36.35 317.15 39.75 317.15 40.75C317.15 41.7 315.65 41.85 314.6 41.85H309.3V46.3C309.3 53.15 306.35 54.9 302.1 54.9C300.55 54.9 300.15 54.2 300.05 53.4C299.9 51.55 298.2 50.5 296.7 49.9C296.15 50.3 295.45 50.5 294.65 50.4C293.6 50.3 293.3 48.9 292.9 47.15C292.5 45.3 291.8 43.9 290.6 42.95C293.95 41.95 297.95 43.9 298.25 46.35C298.3 47.15 298.15 48.05 297.75 48.75C300.85 49.15 302.95 48.45 302.95 46.3V41.85H291.15C287.7 41.85 287.5 42.65 286.85 42.65C285.7 42.65 284.2 38.3 285.05 38.3C286.55 38.3 288.1 39.35 291.15 39.35H302.95C302.8 36.8 301.6 35.5 301.8 34.7H295V34.95C295 36.8 292.2 37.35 290.3 37.35C289.5 37.35 288.9 37.3 288.7 37.15C288.1 36.7 288.7 36.15 288.7 33.7V29.7C288.2 29.9 287.45 29.95 286.9 29.95H283.7V48.15C283.7 50 280.85 50.6 279 50.6C278.2 50.6 277.55 50.5 277.4 50.4C276.8 49.95 277.4 49.35 277.4 46.95V30C274.55 30.05 274.35 30.75 273.75 30.75C272.6 30.75 271.1 26.4 271.95 26.4ZM304.4 10.05C307.45 9.2 310.75 10.35 311.1 12.4C311.45 14.1 310.4 16.1 308.35 16.05C307.45 16.05 307.1 14.9 306.65 13.4C306.3 12.2 305.7 11.05 304.4 10.05ZM295 26.3V27.55H299.4V25.35H295.25C295.1 25.6 295 25.9 295 26.3ZM303.9 25.35V27.55H308.25V25.35H303.9ZM295 30.05V32.2H299.4V30.05H295ZM303.9 30.05V32.2H308.25V30.05H303.9ZM308.1 34.7H305.85C306.6 34.95 307.35 35.2 308 35.5C308 35.3 308.05 35.05 308.1 34.7Z" fill="#7B3333"/>
<path d="M28.494 23.536C26.58 41.168 16.256 51.376 6.686 52.072C15.85 43.43 20.954 27.712 20.084 19.012C20.026 18.026 18.634 17.214 17.126 17.446C17.126 17.446 16.43 15.242 22.23 15.01C28.204 14.778 30.118 17.794 30.118 19.65C30.176 20.868 28.784 20.81 28.494 23.536ZM41.892 40.298C41.428 36.586 39.92 28.408 34.99 24.116C42.066 23.652 49.316 31.134 49.896 39.544C50.128 42.618 47.17 46.33 44.154 45.866C42.588 45.634 42.24 42.966 41.892 40.298ZM55.522 19.36C55.058 18.548 54.014 18.258 52.912 18.316C52.912 18.316 52.158 16.808 56.74 15.822C60.858 14.952 62.888 16.924 63.584 18.606L67.702 18.432V15.59C67.644 14.546 67.528 12.574 66.948 11.646C66.426 10.834 65.266 10.544 64.106 10.602C64.106 10.602 63.294 9.094 68.224 8.108C73.328 7.122 75.474 9.848 75.822 11.646C75.996 12.864 75.01 13.096 75.01 16.17V18.026C75.938 18.026 76.866 17.968 77.794 17.91C79.012 16.344 79.766 15.822 81.97 16.46C86.494 17.678 90.322 21.39 89.452 23.304C88.93 24.464 86.494 23.884 86.262 25.508C84.58 37.514 80.23 53.406 61.496 53.174C74.082 45.576 76.924 34.788 77.04 23.536C73.27 23.768 67.528 24.174 63.062 24.87C63.178 27.712 63.642 28.64 63.642 29.916C63.642 32.99 62.25 35.368 60.046 35.368C58.77 35.368 56.45 34.44 55.754 32.41C54.942 29.974 56.218 29.452 56.218 23.884C56.218 23.884 56.334 20.694 55.522 19.36ZM132.082 16.344C130.98 16.518 130.11 14.778 129.298 13.038C128.138 10.66 126.92 9.21 124.31 8.398C129.008 6.484 133.532 7.992 134.518 10.776C135.272 12.806 134.228 15.996 132.082 16.344ZM123.382 17.156C122.628 14.604 121.7 12.98 119.206 11.762C124.194 10.602 128.428 12.806 128.95 15.706C129.298 17.91 127.79 20.81 125.586 20.81C124.484 20.868 123.962 19.012 123.382 17.156ZM102.966 15.532C108.418 12.922 113.87 14.372 115.262 17.62C116.248 19.998 115.262 23.826 112.71 24.406C111.434 24.696 110.332 22.724 109.23 20.694C107.664 17.91 106.156 16.286 102.966 15.532ZM130.98 19.592C133.996 30.728 125.006 41.748 108.302 48.302C105.75 49.346 106.04 50.506 104.822 50.738C103.024 51.086 99.66 49.81 98.674 43.952C97.746 38.21 100.066 38.442 100.066 38.442C100.124 39.95 101.226 41.226 102.154 41.052C112.304 39.254 126.224 32.178 130.98 19.592ZM101.342 29.278C99.37 26.784 97.63 25.392 94.382 25.102C99.312 21.738 104.996 22.318 106.852 25.276C108.186 27.48 107.78 31.366 105.344 32.352C104.126 32.874 102.734 31.076 101.342 29.278ZM146.582 24.812C144.436 22.202 141.652 20.114 138.23 19.94C143.798 15.358 150.294 17.272 152.382 20.404C153.89 22.724 153.542 26.9 150.99 28.002C149.656 28.582 148.148 26.668 146.582 24.812ZM146.582 51.318C144.784 51.666 141.42 50.39 140.434 44.532C139.506 38.79 141.826 39.022 141.826 39.022C141.884 40.53 142.986 41.806 143.914 41.632C154.064 39.834 167.984 32.758 172.74 20.172C175.756 31.308 166.766 42.328 150.062 48.882C147.51 49.926 147.8 51.086 146.582 51.318ZM212.934 3.584C217.632 1.67 222.156 3.178 223.142 5.962C223.896 7.992 222.852 11.124 220.648 11.53C219.546 11.704 218.734 9.964 217.922 8.224C216.762 5.846 215.544 4.338 212.934 3.584ZM207.83 6.948C212.76 5.788 216.994 7.992 217.574 10.892C217.922 13.038 216.414 15.996 214.21 15.996C213.108 15.996 212.528 14.198 212.006 12.342C211.252 9.79 210.266 8.108 207.83 6.948ZM183.354 53.174C198.84 44.996 201.682 30.67 201.914 20.694C200 20.868 197.738 21.1 195.302 21.506C192.924 31.076 187.82 37.63 179.178 38.732C186.196 31.25 188.052 20.288 188.052 12.458C188.052 11.472 186.718 10.602 185.21 10.718C185.21 10.718 184.688 8.456 190.488 8.63C196.404 8.804 198.086 11.994 198.028 13.85C197.97 14.546 197.506 14.778 197.042 15.358L202.668 15.01V14.952C203.886 13.386 204.64 12.864 206.844 13.444C211.368 14.72 215.196 18.432 214.326 20.346C213.804 21.506 211.368 20.926 211.136 22.55C209.164 36.586 203.306 54.624 183.354 53.174Z" fill="#7B3333"/>
</svg>
