<svg width="340" height="48" viewBox="0 0 340 48" fill="none" xmlns="http://www.w3.org/2000/svg">
<path d="M27.2204 32.336C27.8924 32.384 28.4204 32.96 28.3244 33.632C28.1804 34.784 27.9884 36.56 27.8924 38.384C27.7964 40.208 27.7484 41.984 27.7964 43.136C27.7964 43.808 27.2204 44.336 26.5484 44.288C23.2364 44.288 21.1244 43.856 10.6604 43.856C8.83638 43.856 7.06038 43.952 5.90838 44C5.23638 44.048 4.70838 43.52 4.70838 42.848C4.70838 31.424 20.7404 28.88 21.7004 19.184C22.2284 13.712 20.2604 9.68 16.2764 9.68C10.9484 9.68 9.46038 13.664 11.5724 14.432C12.7724 14.96 13.4924 15.92 13.6844 17.168C14.0684 19.184 12.7244 21.104 10.7564 21.44C9.41238 21.68 8.16438 21.2 7.25238 20.192C4.22838 16.784 6.24438 7.28 16.2764 7.28C24.1484 7.28 28.9004 12.416 28.2284 19.184C27.1244 30.224 15.1724 32.096 9.74838 37.952H22.9004C25.3964 37.952 25.8764 36.176 26.0204 33.44C26.0684 32.816 26.5964 32.288 27.2204 32.336ZM48.8894 7.28C54.4574 7.28 61.4174 11.024 61.9454 24.32C62.4734 39.104 55.5134 44.24 48.8894 44.24C43.2734 44.24 35.8334 41.456 35.8334 27.296C35.8334 13.136 42.2654 7.28 48.8894 7.28ZM48.8894 41.84C53.2574 41.84 55.8974 36.896 55.8974 24.32C55.8974 15.2 53.2094 9.68 48.8894 9.68C44.4734 9.68 41.8814 15.488 41.8814 27.296C41.8814 36.704 44.5214 41.84 48.8894 41.84ZM90.5485 32.336C91.2205 32.384 91.7485 32.96 91.6525 33.632C91.5085 34.784 91.3165 36.56 91.2205 38.384C91.1245 40.208 91.0765 41.984 91.1245 43.136C91.1245 43.808 90.5485 44.336 89.8765 44.288C86.5645 44.288 84.4525 43.856 73.9885 43.856C72.1645 43.856 70.3885 43.952 69.2365 44C68.5645 44.048 68.0365 43.52 68.0365 42.848C68.0365 31.424 84.0685 28.88 85.0285 19.184C85.5565 13.712 83.5885 9.68 79.6045 9.68C74.2765 9.68 72.7885 13.664 74.9005 14.432C76.1005 14.96 76.8205 15.92 77.0125 17.168C77.3965 19.184 76.0525 21.104 74.0845 21.44C72.7405 21.68 71.4925 21.2 70.5805 20.192C67.5565 16.784 69.5725 7.28 79.6045 7.28C87.4765 7.28 92.2285 12.416 91.5565 19.184C90.4525 30.224 78.5005 32.096 73.0765 37.952H86.2285C88.7245 37.952 89.2045 36.176 89.3485 33.44C89.3965 32.816 89.9245 32.288 90.5485 32.336ZM111.594 21.584C118.65 21.584 123.306 26.144 123.306 32.864C123.306 39.728 118.362 44.48 111.594 44.48C102.666 44.48 99.1615 39.296 99.1615 28.16C99.1615 13.424 105.066 7.856 111.642 7.52C121.626 7.04 123.258 16.064 120.234 19.472C119.37 20.48 118.122 20.96 116.778 20.72C114.762 20.336 113.418 18.416 113.802 16.448C114.042 15.2 114.714 14.192 115.962 13.712C118.026 12.944 116.394 9.632 112.602 9.92C109.866 10.16 106.074 13.232 105.354 24.176C107.034 22.304 109.29 21.584 111.594 21.584ZM111.594 42.08C115.146 42.08 116.778 38.576 116.778 32.864C116.778 27.488 114.858 23.984 111.594 23.984C107.85 23.984 105.162 26.576 105.306 32.672C105.642 38.144 106.842 42.08 111.594 42.08Z" fill="#7B3333"/>
<path d="M136.48 29.2C136.187 29.4133 135.853 29.52 135.48 29.52C135.107 29.52 134.787 29.3467 134.52 29L132.08 26.4C131.733 26.0533 131.56 25.6933 131.56 25.32C131.56 24.7867 131.867 24.3333 132.48 23.96C133.92 23.24 135.427 22.3733 137 21.36C139.8 19.4933 141.747 17.9733 142.84 16.8C143.453 16.1867 144.027 15.88 144.56 15.88C145.093 15.88 145.68 16.1467 146.32 16.68C146.96 17.2133 148.053 18.08 149.6 19.28C153.413 22.16 157.373 24.8133 161.48 27.24C162.413 27.7733 163.36 28.28 164.32 28.76C164.773 28.9733 165 29.2667 165 29.64C165 29.9067 164.867 30.1867 164.6 30.48C163.613 31.6 162.813 32.7467 162.2 33.92C161.96 34.4267 161.627 34.68 161.2 34.68C160.853 34.68 160.6 34.6133 160.44 34.48C155.933 31.6533 151.76 28.6933 147.92 25.6C146.8 24.6933 146 24.0133 145.52 23.56C145.067 23.1067 144.733 22.8267 144.52 22.72C144.44 22.7467 144.333 22.8133 144.2 22.92C142.333 24.7867 139.76 26.88 136.48 29.2ZM184.72 10.32V10.84L184.76 14.72C184.76 14.9867 184.827 15.1867 184.96 15.32C185.093 15.4267 185.253 15.48 185.44 15.48C185.493 15.48 185.547 15.48 185.6 15.48C188.24 15.16 190.667 14.6933 192.88 14.08C192.987 14.0533 193.107 14.04 193.24 14.04C193.533 14.04 193.773 14.1467 193.96 14.36C194.067 14.52 194.133 14.72 194.16 14.96L194.24 15.72C194.32 16.9467 194.44 17.8267 194.6 18.36C194.6 18.4667 194.6 18.56 194.6 18.64C194.6 19.2267 194.307 19.6 193.72 19.76C191.827 20.24 189.187 20.64 185.8 20.96C185.56 20.96 185.373 21.04 185.24 21.2C185.107 21.3333 185.04 21.5067 185.04 21.72C185.04 21.72 185.093 22.84 185.2 25.08L185.36 28.2C185.36 28.5733 185.56 28.8267 185.96 28.96C189 29.92 192.027 31.28 195.04 33.04C195.467 33.3067 195.68 33.6 195.68 33.92C195.68 34.2133 195.547 34.48 195.28 34.72C194.64 35.36 194.013 36.1733 193.4 37.16C193.24 37.4 193.107 37.64 193 37.88C192.787 38.28 192.507 38.48 192.16 38.48C191.813 38.48 191.547 38.4 191.36 38.24C191.173 38.08 190.827 37.84 190.32 37.52C189.813 37.1733 189.227 36.8 188.56 36.4C187.893 35.9733 187.347 35.6667 186.92 35.48C186.52 35.2933 186.253 35.2 186.12 35.2C185.773 35.2 185.507 35.5333 185.32 36.2C184.787 38.04 183.573 39.3733 181.68 40.2C180.533 40.7067 179.107 40.96 177.4 40.96C177.16 40.96 176.92 40.9467 176.68 40.92C173.16 40.76 170.76 39.48 169.48 37.08C169.027 36.2533 168.8 35.1867 168.8 33.88C168.8 32.5467 169.253 31.3867 170.16 30.4C171.867 28.4533 174.227 27.48 177.24 27.48C177.4 27.48 177.973 27.4933 178.96 27.52L179.32 27.6C179.267 26.16 179.2 24.64 179.12 23.04L178.84 17.76C178.867 15.9733 178.8 14.3467 178.64 12.88C178.587 12.3733 178.56 11.9067 178.56 11.48V10.2C178.56 9.74667 178.693 9.38667 178.96 9.12C179.253 8.82667 179.627 8.68 180.08 8.68H183.16C183.64 8.68 184.013 8.82667 184.28 9.12C184.573 9.41333 184.72 9.81333 184.72 10.32ZM174.6 33.96C174.6 34.3067 174.747 34.56 175.04 34.72C175.413 34.9067 176.067 35.0533 177 35.16C177.24 35.1867 177.453 35.2 177.64 35.2C178.227 35.2 178.667 35.08 178.96 34.84C179.36 34.5467 179.56 34.1333 179.56 33.6V33.16V32.92C179.32 32.8667 178.973 32.8133 178.52 32.76L177.32 32.72C175.507 32.72 174.6 33.1333 174.6 33.96ZM213.16 7.92C213.32 7.86667 213.48 7.84 213.64 7.84C213.827 7.84 214 7.86667 214.16 7.92C215.653 8.58667 217.16 9.14667 218.68 9.6C220.227 10.0267 221.093 10.28 221.28 10.36C221.493 10.4133 221.72 10.48 221.96 10.56C222.333 10.64 222.613 10.84 222.8 11.16C222.907 11.3467 222.96 11.5467 222.96 11.76C222.96 11.9467 222.933 12.1467 222.88 12.36L221.8 15.28C221.533 15.92 221.08 16.24 220.44 16.24C220.307 16.24 220.16 16.2267 220 16.2C217.573 15.5067 214.773 14.5333 211.6 13.28C211.147 13.12 210.853 12.84 210.72 12.44C210.693 12.3067 210.68 12.1733 210.68 12.04C210.68 11.7733 210.76 11.5067 210.92 11.24L212.36 8.64C212.547 8.29333 212.813 8.05333 213.16 7.92ZM218.16 41.16C217.893 41.3467 217.587 41.44 217.24 41.44C216.893 41.44 216.587 41.3467 216.32 41.16C216.08 40.9733 215.8 40.8 215.48 40.64C214.893 40.2933 214.293 39.9867 213.68 39.72C213.093 39.4533 212.733 39.2933 212.6 39.24C212.307 39.16 212.107 39.0667 212 38.96C211.92 38.8267 211.88 38.6933 211.88 38.56C211.88 38.2933 212.053 38.0533 212.4 37.84C215.92 35.6 218.227 32.72 219.32 29.2C219.64 27.5467 219.813 26.4 219.84 25.76C219.84 24.7467 219.667 24.0267 219.32 23.6C218.973 23.1733 218.427 22.96 217.68 22.96C216.267 22.96 214.827 23.1733 213.36 23.6C211.893 24.08 210.587 24.6933 209.44 25.44C209.2 25.5733 208.96 25.64 208.72 25.64C208.427 25.64 208.187 25.4667 208 25.12C207.867 24.9067 207.76 24.7467 207.68 24.64C207.627 24.5333 207.533 24.36 207.4 24.12C207.213 23.8 206.88 23.2667 206.4 22.52C206.187 22.1733 205.987 21.88 205.8 21.64C205.613 21.4 205.52 21.16 205.52 20.92C205.52 20.5467 205.733 20.2533 206.16 20.04C208 19.2667 209.84 18.6 211.68 18.04C213.52 17.4533 215.267 17.16 216.92 17.16C218.6 17.16 219.96 17.3467 221 17.72C222.04 18.0933 222.933 18.64 223.68 19.36C225.227 20.8533 226 22.8933 226 25.48C226 28.6 225.32 31.5333 223.96 34.28C222.6 37 220.667 39.2933 218.16 41.16ZM242.48 16.16V13.04C242.48 12.5067 242.653 12.12 243 11.88C243.24 11.6667 243.507 11.56 243.8 11.56C243.907 11.56 244.053 11.5867 244.24 11.64C244.453 11.6667 244.667 11.6933 244.88 11.72C245.12 11.7467 245.587 11.8 246.28 11.88C247.293 12.0133 248.667 12.08 250.4 12.08C253.04 12.08 255.52 11.88 257.84 11.48C258 11.4533 258.133 11.44 258.24 11.44C258.747 11.44 259.107 11.6 259.32 11.92C259.507 12.16 259.6 12.48 259.6 12.88V16.04C259.6 16.3867 259.493 16.6933 259.28 16.96C259.067 17.2267 258.64 17.4267 258 17.56C256.907 17.8 255.32 17.9467 253.24 18C252.013 18.0267 251.067 18.04 250.4 18.04C247.893 18.04 245.64 17.8933 243.64 17.6C243.293 17.5467 243.013 17.3867 242.8 17.12C242.587 16.8267 242.48 16.5067 242.48 16.16ZM242.76 29.12C243.373 29.12 243.867 29.4667 244.24 30.16C244.773 30.9867 245.453 31.5333 246.28 31.8C247.107 32.0667 248.253 32.2 249.72 32.2C251.187 32.2 252.973 32.08 255.08 31.84C257.107 31.6267 259.12 31.2533 261.12 30.72C261.253 30.6933 261.387 30.68 261.52 30.68C261.84 30.68 262.08 30.8 262.24 31.04C262.373 31.2 262.453 31.4267 262.48 31.72C262.48 32.7067 262.547 33.52 262.68 34.16C262.813 34.7733 262.893 35.16 262.92 35.32C262.947 35.48 262.973 35.6133 263 35.72C263.053 35.8533 263.08 35.96 263.08 36.04C263.08 36.0933 263.08 36.1333 263.08 36.16C263.08 36.7467 262.76 37.12 262.12 37.28C260.147 37.76 258.28 38.0667 256.52 38.2C254.787 38.3333 253.347 38.4133 252.2 38.44C251.08 38.4667 249.96 38.48 248.84 38.48C247.747 38.48 246.68 38.4 245.64 38.24C244.627 38.0533 243.68 37.7467 242.8 37.32C240.987 36.3867 239.627 34.8267 238.72 32.64C238.56 32.2667 238.547 31.92 238.68 31.6C238.813 31.2533 239.053 30.9867 239.4 30.8L241.88 29.36C242.2 29.2 242.493 29.12 242.76 29.12ZM294.68 35.28L296.04 35.24C296.253 35.24 296.427 35.28 296.56 35.36C296.8 35.4933 296.92 35.6933 296.92 35.96C296.92 36.12 296.867 36.32 296.76 36.56C296.68 36.6667 296.613 36.8 296.56 36.96C296.507 37.0933 296.427 37.28 296.32 37.52C296 38.3467 295.8 38.9733 295.72 39.4C295.667 39.8267 295.613 40.1467 295.56 40.36C295.533 40.6 295.387 40.84 295.12 41.08C294.88 41.32 294.587 41.44 294.24 41.44C290.72 41.44 287.8 40.7467 285.48 39.36C282.653 37.68 281.24 35.1733 281.24 31.84C281.24 30.16 281.707 28.6667 282.64 27.36C282.72 27.2267 282.773 27.1067 282.8 27C282.8 27 282.76 27 282.68 27C282.627 27 282.547 27.0133 282.44 27.04C278.173 27.8933 275.347 28.6533 273.96 29.32C273.747 29.4 273.507 29.44 273.24 29.44C272.573 29.44 272.107 29.0933 271.84 28.4L270.68 25.32C270.627 25.1867 270.6 25.04 270.6 24.88C270.6 24.4533 270.867 24.1733 271.4 24.04C271.4 24.0133 272.467 23.8133 274.6 23.44C277 22.9067 280.213 20.4 284.24 15.92C284.453 15.68 284.707 15.3867 285 15.04C285.213 14.8267 285.28 14.7067 285.2 14.68C285.147 14.6533 285.067 14.64 284.96 14.64C284.8 14.64 284.573 14.6667 284.28 14.72C282.173 15.2 280.467 15.4933 279.16 15.6C279.08 15.6 279 15.6 278.92 15.6C278.653 15.6 278.387 15.5067 278.12 15.32C277.88 15.1333 277.707 14.8667 277.6 14.52L276.84 12C276.76 11.76 276.72 11.52 276.72 11.28C276.72 11.04 276.8 10.8 276.96 10.56C277.227 10.2133 277.667 10.0133 278.28 9.96L280.36 9.8C284.28 9.48 287.107 9 288.84 8.36C289.053 8.30667 289.28 8.28 289.52 8.28C289.787 8.28 290.053 8.36 290.32 8.52L293.36 10.44C293.68 10.68 293.893 10.9733 294 11.32C294.053 11.4533 294.08 11.6133 294.08 11.8C294.08 11.9867 294 12.2 293.84 12.44C292.267 15.16 290.12 17.76 287.4 20.24C287.08 20.56 286.867 20.8133 286.76 21C286.813 21 286.907 21 287.04 21C287.173 21 287.4 20.9733 287.72 20.92L296.72 19.2C296.8 19.1733 296.893 19.16 297 19.16C297.32 19.16 297.613 19.2533 297.88 19.44C298.227 19.6533 298.427 20 298.48 20.48L298.96 23.56C298.987 23.64 299 23.72 299 23.8C299 24.1467 298.88 24.4267 298.64 24.64C298.453 24.7733 298.213 24.8533 297.92 24.88H297.04C294.293 25.04 292.12 25.5467 290.52 26.4C288.493 27.4933 287.48 29.2267 287.48 31.6C287.48 32.9867 288.28 33.9733 289.88 34.56C291.133 35.04 292.733 35.28 294.68 35.28ZM318.84 32.44C318.093 32.44 317.667 32.04 317.56 31.24C317.507 30.8667 317.467 30.4667 317.44 30.04C317.44 29.6133 317.413 29.1733 317.36 28.72L316.76 19.8C316.547 17.56 316.44 15.3333 316.44 13.12V8.6C316.44 8.2 316.56 7.88 316.8 7.64C317.04 7.4 317.36 7.28 317.76 7.28H322.24C322.64 7.28 322.96 7.4 323.2 7.64C323.44 7.88 323.56 8.2 323.56 8.6V13.12C323.56 13.7867 323.533 14.7067 323.48 15.88C323.453 16.4667 323.427 17.0933 323.4 17.76C323.373 18.4 323.333 19.08 323.28 19.8L322.64 28.72C322.587 29.1733 322.547 29.6133 322.52 30.04C322.52 30.4667 322.493 30.8667 322.44 31.24C322.333 32.04 321.907 32.44 321.16 32.44H318.84ZM323.92 38.88C323.92 40 323.547 40.9333 322.8 41.68C322.053 42.4267 321.12 42.8 320 42.8C318.907 42.8 317.973 42.4133 317.2 41.64C316.453 40.8933 316.08 39.9733 316.08 38.88C316.08 37.76 316.453 36.84 317.2 36.12C317.973 35.3733 318.907 35 320 35C321.12 35 322.053 35.3733 322.8 36.12C323.547 36.84 323.92 37.76 323.92 38.88Z" fill="#7B3333"/>
</svg>
