<?xml version="1.0" encoding="UTF-8"?>
<svg id="_レイヤー_1" xmlns="http://www.w3.org/2000/svg" version="1.1" viewBox="0 0 375.04 580.62">
  <!-- Generator: Adobe Illustrator 30.6.0, SVG Export Plug-In . SVG Version: 2.1.4 Build 109)  -->
  <defs>
    <style>
      .st0 {
        fill: #b98d8d;
      }

      .st1 {
        stroke: #b98d8d;
      }

      .st1, .st2, .st3 {
        fill: none;
      }

      .st3 {
        stroke: #7b3333;
        stroke-width: 3px;
      }

      .st4 {
        fill: #7b3333;
      }
    </style>
  </defs>
  <path class="st3" d="M184.55.52C179.68,34.02,108.84,112.62.02,113.52"/>
  <ellipse class="st4" cx="30.21" cy="111.52" rx="4.87" ry="5"/>
  <ellipse class="st4" cx="68.19" cy="101.52" rx="4.87" ry="5"/>
  <ellipse class="st4" cx="99.35" cy="88.52" rx="4.87" ry="5"/>
  <ellipse class="st4" cx="129.53" cy="69.52" rx="4.87" ry="5"/>
  <ellipse class="st4" cx="156.8" cy="46.52" rx="4.87" ry="5"/>
  <g>
    <path class="st3" d="M190.49.52c4.87,33.5,75.71,112.1,184.53,113"/>
    <ellipse class="st4" cx="344.83" cy="111.52" rx="4.87" ry="5"/>
    <ellipse class="st4" cx="306.86" cy="101.52" rx="4.87" ry="5"/>
    <ellipse class="st4" cx="275.7" cy="88.52" rx="4.87" ry="5"/>
    <ellipse class="st4" cx="245.51" cy="69.52" rx="4.87" ry="5"/>
    <ellipse class="st4" cx="218.24" cy="46.52" rx="4.87" ry="5"/>
  </g>
  <path class="st4" d="M42.99,79.67l-9.85-14.31,14.79-2.46-4.94,16.78h0Z"/>
  <g>
    <path class="st3" d="M112.01.52C100.81,30.52,69.16,67.52.02,68.52"/>
    <path class="st4" d="M10.19,84.75l-7.9-15.54,14.98-.41s-7.08,15.95-7.08,15.95Z"/>
    <path class="st4" d="M63.53,72.32l-12.78-11.63,13.86-5.87-1.08,17.49h0Z"/>
    <path class="st4" d="M88.18,57.73l-15.07-8.22,12.12-9.04s2.95,17.26,2.95,17.26Z"/>
    <path class="st4" d="M122.52,14.57l-17.02,1.29,5.57-14.29,11.45,12.99h0Z"/>
    <path class="st4" d="M108.8,37.95l-16.52-4.44,9.78-11.66,6.74,16.11h0Z"/>
  </g>
  <path class="st3" d="M263.04.52c11.2,30,42.85,67,111.98,68"/>
  <path class="st4" d="M335.94,79.67l9.85-14.31-14.79-2.46,4.94,16.78h0Z"/>
  <path class="st4" d="M364.86,84.75l7.9-15.54-14.98-.41,7.08,15.95h0Z"/>
  <path class="st4" d="M311.51,72.32l12.78-11.63-13.86-5.87,1.08,17.49h0Z"/>
  <path class="st4" d="M286.87,57.73l15.07-8.22-12.12-9.04-2.95,17.26Z"/>
  <path class="st4" d="M252.52,14.57l17.02,1.29-5.57-14.29-11.45,12.99h0Z"/>
  <path class="st4" d="M266.24,37.95l16.52-4.44-9.78-11.66-6.74,16.11h0Z"/>
  <g>
    <path class="st4" d="M259.43,231.23c-1.2,0-2.65-4.35-1.8-4.35,1.5,0,3.05,1.05,6.05,1.05h26.25c2.45,0,3.05-3,4.45-3,1.2,0,3.35,3.4,3.35,4.35,0,1-1.5,1.15-2.55,1.15h-17.6c.25.2.4.45.4.65,0,.85-1.2,1.15-1.2,2.6,0,2.35-.1,4.7-.35,7h7.4c2.5,0,3.1-3,4.45-3,1.25,0,5.2,3.35,5.2,4.6,0,1.5-1.1,1.45-1.2,3.4-.3,6.05-1.25,11.5-2.9,16.1-1.6,4.65-3.25,6.6-7.25,6.6-1.55,0-1.95-.7-2.05-1.5-.2-2.25-2.65-3.3-5.6-4.05l.3-1.1c5.3,1.05,7.7.45,8.65-1.95,1.2-3.25,2.55-8.1,2.55-16.6h-9.85c-1.8,12.4-7.4,22.65-18.25,23.95,9.25-8.7,12.6-19.35,12.6-33.45,0-1.4-.3-2.45-.6-3.25h-6.2c-3.45,0-3.6.8-4.25.8h0ZM304.53,239.88c1.4,0,2.8.9,5.45,1.05v-6.5c0-3.25-1.7-4.65-1.05-5.45.95-1.15,8.55,1.35,8.55,2.9,0,.85-1.2,1.15-1.2,2.55v5.6c.9-.85,1.5-2.1,2.35-2.1.8,0,1.9,1.4,2.65,2.6v-.75c0-3.25-1.7-4.65-1-5.5.75-.9,6,.65,7.85,2.05h2.95v-3.55h-6.35c-3.45,0-3.65.8-4.3.8-1.15,0-2.65-4.35-1.8-4.35,1.5,0,3.05,1.05,6.1,1.05h6.35v-1.45c0-3.2-1.7-4.65-1.05-5.45.95-1.1,8.55,1.4,8.55,2.9,0,.85-1.2,1.15-1.2,2.55v1.45h3.55c2.45,0,3.05-3,4.45-3,1.2,0,3.35,3.4,3.35,4.35,0,1-1.5,1.15-2.55,1.15h-8.8v3.55h1.35c2.45,0,3.05-3,4.45-3,1.2,0,5.15,3.35,5.15,4.6,0,1.5-1.15,1.45-1.15,3.4v6.1c0,1.85-2.85,2.4-4.75,2.4h-.2c.5.35.8.7.8,1.05,0,.7-.8,1.05-1.1,1.95,2.45,0,3.05-3,4.45-3,1.2,0,3.35,3.4,3.35,4.4s-1.5,1.1-2.55,1.1h-5.3v4.45c0,6.85-2.95,8.6-7.2,8.6-1.55,0-1.95-.7-2.05-1.5-.15-1.85-1.85-2.9-3.35-3.5-.55.4-1.25.6-2.05.5-1.05-.1-1.35-1.5-1.75-3.25-.4-1.85-1.1-3.25-2.3-4.2,3.35-1,7.35.95,7.65,3.4.05.8-.1,1.7-.5,2.4,3.1.4,5.2-.3,5.2-2.45v-4.45h-11.8c-3.45,0-3.65.8-4.3.8-1.15,0-2.65-4.35-1.8-4.35,1.5,0,3.05,1.05,6.1,1.05h11.8c-.15-2.55-1.35-3.85-1.15-4.65h-6.8v.25c0,1.85-2.8,2.4-4.7,2.4-.8,0-1.4-.05-1.6-.2-.6-.45,0-1,0-3.45v-4c-.5.2-1.25.25-1.8.25h-3.2v18.2c0,1.85-2.85,2.45-4.7,2.45-.8,0-1.45-.1-1.6-.2-.6-.45,0-1.05,0-3.45v-16.95c-2.85.05-3.05.75-3.65.75-1.15,0-2.65-4.35-1.8-4.35h0ZM336.98,223.53c3.05-.85,6.35.3,6.7,2.35.35,1.7-.7,3.7-2.75,3.65-.9,0-1.25-1.15-1.7-2.65-.35-1.2-.95-2.35-2.25-3.35ZM327.58,239.78v1.25h4.4v-2.2h-4.15c-.15.25-.25.55-.25.95ZM336.48,238.83v2.2h4.35v-2.2h-4.35ZM327.58,243.53v2.15h4.4v-2.15h-4.4ZM336.48,243.53v2.15h4.35v-2.15h-4.35ZM340.68,248.18h-2.25c.75.25,1.5.5,2.15.8,0-.2.05-.45.1-.8Z"/>
    <path class="st4" d="M61.07,237.02c-1.91,17.63-12.24,27.84-21.81,28.54,9.16-8.64,14.27-24.36,13.4-33.06-.06-.99-1.45-1.8-2.96-1.57,0,0-.7-2.2,5.1-2.44,5.97-.23,7.89,2.78,7.89,4.64.06,1.22-1.33,1.16-1.62,3.89h0ZM74.47,253.78c-.46-3.71-1.97-11.89-6.9-16.18,7.08-.46,14.33,7.02,14.91,15.43.23,3.07-2.73,6.79-5.74,6.32-1.57-.23-1.91-2.9-2.26-5.57h-.01ZM88.1,232.84c-.46-.81-1.51-1.1-2.61-1.04,0,0-.75-1.51,3.83-2.49,4.12-.87,6.15,1.1,6.84,2.78l4.12-.17v-2.84c-.06-1.04-.17-3.02-.75-3.94-.52-.81-1.68-1.1-2.84-1.04,0,0-.81-1.51,4.12-2.49,5.1-.99,7.25,1.74,7.6,3.54.17,1.22-.81,1.45-.81,4.52v1.86c.93,0,1.86-.06,2.78-.12,1.22-1.57,1.97-2.09,4.18-1.45,4.52,1.22,8.35,4.93,7.48,6.84-.52,1.16-2.96.58-3.19,2.2-1.68,12.01-6.03,27.9-24.77,27.67,12.59-7.6,15.43-18.39,15.54-29.64-3.77.23-9.51.64-13.98,1.33.12,2.84.58,3.77.58,5.05,0,3.07-1.39,5.45-3.6,5.45-1.28,0-3.6-.93-4.29-2.96-.81-2.44.46-2.96.46-8.53,0,0,.12-3.19-.7-4.52h0ZM164.66,229.83c-1.1.17-1.97-1.57-2.78-3.31-1.16-2.38-2.38-3.83-4.99-4.64,4.7-1.91,9.22-.41,10.21,2.38.75,2.03-.29,5.22-2.44,5.57h0ZM155.96,230.64c-.75-2.55-1.68-4.18-4.18-5.39,4.99-1.16,9.22,1.04,9.74,3.94.35,2.2-1.16,5.1-3.36,5.1-1.1.06-1.62-1.8-2.2-3.65h0ZM135.54,229.02c5.45-2.61,10.9-1.16,12.3,2.09.99,2.38,0,6.21-2.55,6.79-1.28.29-2.38-1.68-3.48-3.71-1.57-2.78-3.07-4.41-6.26-5.16h-.01ZM163.56,233.08c3.02,11.14-5.97,22.16-22.68,28.71-2.55,1.04-2.26,2.2-3.48,2.44-1.8.35-5.16-.93-6.15-6.79-.93-5.74,1.39-5.51,1.39-5.51.06,1.51,1.16,2.78,2.09,2.61,10.15-1.8,24.07-8.87,28.83-21.46ZM133.92,242.76c-1.97-2.49-3.71-3.89-6.96-4.18,4.93-3.36,10.61-2.78,12.47.17,1.33,2.2.93,6.09-1.51,7.08-1.22.52-2.61-1.28-4-3.07ZM179.16,238.3c-2.15-2.61-4.93-4.7-8.35-4.87,5.57-4.58,12.06-2.67,14.15.46,1.51,2.32,1.16,6.5-1.39,7.6-1.33.58-2.84-1.33-4.41-3.19h0ZM179.16,264.8c-1.8.35-5.16-.93-6.15-6.79-.93-5.74,1.39-5.51,1.39-5.51.06,1.51,1.16,2.78,2.09,2.61,10.15-1.8,24.07-8.87,28.83-21.46,3.02,11.14-5.97,22.16-22.68,28.71-2.55,1.04-2.26,2.2-3.48,2.44h0ZM245.51,217.07c4.7-1.91,9.22-.41,10.21,2.38.75,2.03-.29,5.16-2.49,5.57-1.1.17-1.91-1.57-2.73-3.31-1.16-2.38-2.38-3.89-4.99-4.64h0ZM240.41,220.43c4.93-1.16,9.16,1.04,9.74,3.94.35,2.15-1.16,5.1-3.36,5.1-1.1,0-1.68-1.8-2.2-3.65-.75-2.55-1.74-4.23-4.18-5.39h0ZM215.93,266.66c15.49-8.18,18.33-22.5,18.56-32.48-1.91.17-4.18.41-6.61.81-2.38,9.57-7.48,16.12-16.12,17.23,7.02-7.48,8.87-18.44,8.87-26.27,0-.99-1.33-1.86-2.84-1.74,0,0-.52-2.26,5.28-2.09,5.92.17,7.6,3.36,7.54,5.22-.06.7-.52.93-.99,1.51l5.63-.35v-.06c1.22-1.57,1.97-2.09,4.18-1.51,4.52,1.28,8.35,4.99,7.48,6.9-.52,1.16-2.96.58-3.19,2.2-1.97,14.04-7.83,32.07-27.78,30.62h0Z"/>
    <path class="st4" d="M55.72,328.67c.67.05,1.2.62,1.1,1.3-.14,1.15-.34,2.93-.43,4.75-.1,1.82-.14,3.6-.1,4.75,0,.67-.58,1.2-1.25,1.15-3.31,0-5.42-.43-15.89-.43-1.82,0-3.6.1-4.75.14-.67.05-1.2-.48-1.2-1.15,0-11.42,16.03-13.97,16.99-23.66.53-5.47-1.44-9.5-5.42-9.5-5.33,0-6.82,3.98-4.7,4.75,1.2.53,1.92,1.49,2.11,2.74.38,2.02-.96,3.94-2.93,4.27-1.34.24-2.59-.24-3.5-1.25-3.02-3.41-1.01-12.91,9.02-12.91,7.87,0,12.62,5.14,11.95,11.9-1.1,11.04-13.06,12.91-18.48,18.77h13.15c2.5,0,2.98-1.78,3.12-4.51.05-.62.58-1.15,1.2-1.1h0ZM77.39,303.61c5.57,0,12.53,3.74,13.06,17.04.53,14.78-6.43,19.92-13.06,19.92-5.62,0-13.06-2.78-13.06-16.94s6.43-20.02,13.06-20.02h0ZM77.39,338.17c4.37,0,7.01-4.94,7.01-17.52,0-9.12-2.69-14.64-7.01-14.64s-7.01,5.81-7.01,17.62c0,9.41,2.64,14.54,7.01,14.54ZM119.05,328.67c.67.05,1.2.62,1.1,1.3-.14,1.15-.34,2.93-.43,4.75-.1,1.82-.14,3.6-.1,4.75,0,.67-.58,1.2-1.25,1.15-3.31,0-5.42-.43-15.89-.43-1.82,0-3.6.1-4.75.14-.67.05-1.2-.48-1.2-1.15,0-11.42,16.03-13.97,16.99-23.66.53-5.47-1.44-9.5-5.42-9.5-5.33,0-6.82,3.98-4.7,4.75,1.2.53,1.92,1.49,2.11,2.74.38,2.02-.96,3.94-2.93,4.27-1.34.24-2.59-.24-3.5-1.25-3.02-3.41-1.01-12.91,9.02-12.91,7.87,0,12.62,5.14,11.95,11.9-1.1,11.04-13.06,12.91-18.48,18.77h13.15c2.5,0,2.98-1.78,3.12-4.51.05-.62.58-1.15,1.2-1.1h0ZM140.09,317.91c7.06,0,11.71,4.56,11.71,11.28s-4.94,11.62-11.71,11.62c-8.93,0-12.43-5.18-12.43-16.32,0-14.74,5.9-20.3,12.48-20.64,9.98-.48,11.62,8.54,8.59,11.95-.86,1.01-2.11,1.49-3.46,1.25-2.02-.38-3.36-2.3-2.98-4.27.24-1.25.91-2.26,2.16-2.74,2.06-.77.43-4.08-3.36-3.79-2.74.24-6.53,3.31-7.25,14.26,1.68-1.87,3.94-2.59,6.24-2.59h0ZM140.09,338.41c3.55,0,5.18-3.5,5.18-9.22,0-5.38-1.92-8.88-5.18-8.88-3.74,0-6.43,2.59-6.29,8.69.34,5.47,1.54,9.41,6.29,9.41Z"/>
    <path class="st4" d="M164.98,325.53c-.29.21-.63.32-1,.32s-.69-.17-.96-.52l-2.44-2.6c-.35-.35-.52-.71-.52-1.08,0-.53.31-.99.92-1.36,1.44-.72,2.95-1.59,4.52-2.6,2.8-1.87,4.75-3.39,5.84-4.56.61-.61,1.19-.92,1.72-.92s1.12.27,1.76.8,1.73,1.4,3.28,2.6c3.81,2.88,7.77,5.53,11.88,7.96.93.53,1.88,1.04,2.84,1.52.45.21.68.51.68.88,0,.27-.13.55-.4.84-.99,1.12-1.79,2.27-2.4,3.44-.24.51-.57.76-1,.76-.35,0-.6-.07-.76-.2-4.51-2.83-8.68-5.79-12.52-8.88-1.12-.91-1.92-1.59-2.4-2.04-.45-.45-.79-.73-1-.84-.08.03-.19.09-.32.2-1.87,1.87-4.44,3.96-7.72,6.28h0ZM213.22,306.65v.52l.04,3.88c0,.27.07.47.2.6.13.11.29.16.48.16h.16c2.64-.32,5.07-.79,7.28-1.4.11-.03.23-.04.36-.04.29,0,.53.11.72.32.11.16.17.36.2.6l.08.76c.08,1.23.2,2.11.36,2.64v.28c0,.59-.29.96-.88,1.12-1.89.48-4.53.88-7.92,1.2-.24,0-.43.08-.56.24-.13.13-.2.31-.2.52,0,0,.05,1.12.16,3.36l.16,3.12c0,.37.2.63.6.76,3.04.96,6.07,2.32,9.08,4.08.43.27.64.56.64.88,0,.29-.13.56-.4.8-.64.64-1.27,1.45-1.88,2.44-.16.24-.29.48-.4.72-.21.4-.49.6-.84.6s-.61-.08-.8-.24-.53-.4-1.04-.72c-.51-.35-1.09-.72-1.76-1.12-.67-.43-1.21-.73-1.64-.92-.4-.19-.67-.28-.8-.28-.35,0-.61.33-.8,1-.53,1.84-1.75,3.17-3.64,4-1.15.51-2.57.76-4.28.76-.24,0-.48-.01-.72-.04-3.52-.16-5.92-1.44-7.2-3.84-.45-.83-.68-1.89-.68-3.2s.45-2.49,1.36-3.48c1.71-1.95,4.07-2.92,7.08-2.92.16,0,.73.01,1.72.04l.36.08c-.05-1.44-.12-2.96-.2-4.56l-.28-5.28c.03-1.79-.04-3.41-.2-4.88-.05-.51-.08-.97-.08-1.4v-1.28c0-.45.13-.81.4-1.08.29-.29.67-.44,1.12-.44h3.08c.48,0,.85.15,1.12.44.29.29.44.69.44,1.2h0ZM203.1,330.29c0,.35.15.6.44.76.37.19,1.03.33,1.96.44.24.03.45.04.64.04.59,0,1.03-.12,1.32-.36.4-.29.6-.71.6-1.24v-.68c-.24-.05-.59-.11-1.04-.16l-1.2-.04c-1.81,0-2.72.41-2.72,1.24h0ZM241.66,304.25c.16-.05.32-.08.48-.08.19,0,.36.03.52.08,1.49.67,3,1.23,4.52,1.68,1.55.43,2.41.68,2.6.76.21.05.44.12.68.2.37.08.65.28.84.6.11.19.16.39.16.6,0,.19-.03.39-.08.6l-1.08,2.92c-.27.64-.72.96-1.36.96-.13,0-.28-.01-.44-.04-2.43-.69-5.23-1.67-8.4-2.92-.45-.16-.75-.44-.88-.84-.03-.13-.04-.27-.04-.4,0-.27.08-.53.24-.8l1.44-2.6c.19-.35.45-.59.8-.72h0ZM246.66,337.49c-.27.19-.57.28-.92.28s-.65-.09-.92-.28c-.24-.19-.52-.36-.84-.52-.59-.35-1.19-.65-1.8-.92-.59-.27-.95-.43-1.08-.48-.29-.08-.49-.17-.6-.28-.08-.13-.12-.27-.12-.4,0-.27.17-.51.52-.72,3.52-2.24,5.83-5.12,6.92-8.64.32-1.65.49-2.8.52-3.44,0-1.01-.17-1.73-.52-2.16s-.89-.64-1.64-.64c-1.41,0-2.85.21-4.32.64-1.47.48-2.77,1.09-3.92,1.84-.24.13-.48.2-.72.2-.29,0-.53-.17-.72-.52-.13-.21-.24-.37-.32-.48-.05-.11-.15-.28-.28-.52-.19-.32-.52-.85-1-1.6-.21-.35-.41-.64-.6-.88s-.28-.48-.28-.72c0-.37.21-.67.64-.88,1.84-.77,3.68-1.44,5.52-2,1.84-.59,3.59-.88,5.24-.88s3.04.19,4.08.56c1.04.37,1.93.92,2.68,1.64,1.55,1.49,2.32,3.53,2.32,6.12,0,3.12-.68,6.05-2.04,8.8-1.36,2.72-3.29,5.01-5.8,6.88h0ZM270.98,312.49v-3.12c0-.53.17-.92.52-1.16.24-.21.51-.32.8-.32.11,0,.25.03.44.08.21.03.43.05.64.08.24.03.71.08,1.4.16,1.01.13,2.39.2,4.12.2,2.64,0,5.12-.2,7.44-.6.16-.03.29-.04.4-.04.51,0,.87.16,1.08.48.19.24.28.56.28.96v3.16c0,.35-.11.65-.32.92-.21.27-.64.47-1.28.6-1.09.24-2.68.39-4.76.44-1.23.03-2.17.04-2.84.04-2.51,0-4.76-.15-6.76-.44-.35-.05-.63-.21-.84-.48-.21-.29-.32-.61-.32-.96h0ZM271.26,325.45c.61,0,1.11.35,1.48,1.04.53.83,1.21,1.37,2.04,1.64.83.27,1.97.4,3.44.4s3.25-.12,5.36-.36c2.03-.21,4.04-.59,6.04-1.12.13-.03.27-.04.4-.04.32,0,.56.12.72.36.13.16.21.39.24.68,0,.99.07,1.8.2,2.44.13.61.21,1,.24,1.16s.05.29.08.4c.05.13.08.24.08.32v.12c0,.59-.32.96-.96,1.12-1.97.48-3.84.79-5.6.92-1.73.13-3.17.21-4.32.24-1.12.03-2.24.04-3.36.04s-2.16-.08-3.2-.24c-1.01-.19-1.96-.49-2.84-.92-1.81-.93-3.17-2.49-4.08-4.68-.16-.37-.17-.72-.04-1.04.13-.35.37-.61.72-.8l2.48-1.44c.32-.16.61-.24.88-.24h0ZM323.18,331.61l1.36-.04c.21,0,.39.04.52.12.24.13.36.33.36.6,0,.16-.05.36-.16.6-.08.11-.15.24-.2.4-.05.13-.13.32-.24.56-.32.83-.52,1.45-.6,1.88-.05.43-.11.75-.16.96-.03.24-.17.48-.44.72-.24.24-.53.36-.88.36-3.52,0-6.44-.69-8.76-2.08-2.83-1.68-4.24-4.19-4.24-7.52,0-1.68.47-3.17,1.4-4.48.08-.13.13-.25.16-.36h-.12s-.13.01-.24.04c-4.27.85-7.09,1.61-8.48,2.28-.21.08-.45.12-.72.12-.67,0-1.13-.35-1.4-1.04l-1.16-3.08c-.05-.13-.08-.28-.08-.44,0-.43.27-.71.8-.84,0-.03,1.07-.23,3.2-.6,2.4-.53,5.61-3.04,9.64-7.52.21-.24.47-.53.76-.88.21-.21.28-.33.2-.36-.05-.03-.13-.04-.24-.04-.16,0-.39.03-.68.08-2.11.48-3.81.77-5.12.88h-.24c-.27,0-.53-.09-.8-.28-.24-.19-.41-.45-.52-.8l-.76-2.52c-.08-.24-.12-.48-.12-.72s.08-.48.24-.72c.27-.35.71-.55,1.32-.6l2.08-.16c3.92-.32,6.75-.8,8.48-1.44.21-.05.44-.08.68-.08.27,0,.53.08.8.24l3.04,1.92c.32.24.53.53.64.88.05.13.08.29.08.48s-.08.4-.24.64c-1.57,2.72-3.72,5.32-6.44,7.8-.32.32-.53.57-.64.76h.28c.13,0,.36-.03.68-.08l9-1.72c.08-.03.17-.04.28-.04.32,0,.61.09.88.28.35.21.55.56.6,1.04l.48,3.08c.03.08.04.16.04.24,0,.35-.12.63-.36.84-.19.13-.43.21-.72.24h-.88c-2.75.16-4.92.67-6.52,1.52-2.03,1.09-3.04,2.83-3.04,5.2,0,1.39.8,2.37,2.4,2.96,1.25.48,2.85.72,4.8.72h0ZM347.34,328.77c-.75,0-1.17-.4-1.28-1.2-.05-.37-.09-.77-.12-1.2,0-.43-.03-.87-.08-1.32l-.6-8.92c-.21-2.24-.32-4.47-.32-6.68v-4.52c0-.4.12-.72.36-.96s.56-.36.96-.36h4.48c.4,0,.72.12.96.36s.36.56.36.96v4.52c0,.67-.03,1.59-.08,2.76-.03.59-.05,1.21-.08,1.88-.03.64-.07,1.32-.12,2.04l-.64,8.92c-.05.45-.09.89-.12,1.32,0,.43-.03.83-.08,1.2-.11.8-.53,1.2-1.28,1.2h-2.32ZM352.42,335.21c0,1.12-.37,2.05-1.12,2.8s-1.68,1.12-2.8,1.12-2.03-.39-2.8-1.16-1.12-1.67-1.12-2.76.37-2.04,1.12-2.76c.77-.75,1.71-1.12,2.8-1.12s2.05.37,2.8,1.12c.75.72,1.12,1.64,1.12,2.76h0Z"/>
  </g>
  <path class="st0" d="M375.02,459.93v109.61H116.88c0-40.21,40.12-77.36,105.24-97.46,46.89-14.47,101.62-18.52,152.9-12.15Z"/>
  <rect id="rect1" class="st0" x="120.92" y="512.09" width="34" height="22" transform="translate(-286.16 187.22) rotate(-36.85)"/>
  <path id="path1" class="st0" d="M116.91,495.1l32.41,5.7-36.04,27.01,3.63-32.71h0Z"/>
  <path id="path2" class="st4" d="M127.1,523.7l13.6-10.2,7.2,9.6-13.6,10.19-7.2-9.6h0Z"/>
  <path id="path3" class="st1" d="M130.4,528.11l13.6-10.2M133.9,518.61l7.2,9.6M127.1,523.7l13.6-10.2,7.2,9.6-13.6,10.19-7.2-9.6h0Z"/>
  <polygon id="rect3" class="st0" points="165.51 483.98 189.87 471.93 198.23 487.84 173.87 499.9 165.51 483.98"/>
  <path id="path4" class="st0" d="M168.57,460.6l25.25,9.38-32.26,15.97,7.01-25.34h0Z"/>
  <path id="path5" class="st4" d="M173.14,484.76l12.18-6.03,4.56,8.68-12.18,6.03-4.56-8.68Z"/>
  <path id="path6" class="st0" d="M173.14,484.76l-.23-.44-.45.22.23.44.45-.22ZM185.32,478.74l.45-.22-.23-.44-.45.22.23.44ZM189.88,487.42l.23.44.45-.22-.23-.44-.45.22ZM177.7,493.45l-.45.22.23.44.45-.22-.23-.44ZM173.14,484.76l.23.44,12.18-6.03-.23-.44-.23-.44-12.18,6.03.23.44h0ZM185.32,478.74l-.45.22,4.56,8.68.45-.22.45-.22-4.56-8.68-.45.22ZM189.88,487.42l-.23-.44-12.18,6.03.23.44.23.44,12.18-6.03-.23-.44h0ZM177.7,493.45l.45-.22-4.56-8.68-.45.22-.45.22,4.56,8.68.45-.22ZM175.23,488.74l.23.44,12.18-6.03-.23-.44-.23-.44-12.18,6.03.23.44h0ZM179.23,481.75l-.45.22,4.56,8.68.45-.22.45-.22-4.56-8.68-.45.22Z"/>
  <polygon id="rect6" class="st0" points="206.14 463.24 231.7 454 238.22 470.76 212.66 480 206.14 463.24"/>
  <path id="path7" class="st0" d="M211.81,440.35l24.04,12.16-33.85,12.24,9.81-24.4h0Z"/>
  <path id="path8" class="st4" d="M213.64,464.88l12.78-4.62,3.56,9.14-12.78,4.62-3.56-9.14Z"/>
  <path id="path9" class="st0" d="M213.64,464.88l-.18-.47-.47.17.18.47.47-.17ZM226.42,460.26l.47-.17-.18-.47-.47.17.18.47ZM229.97,469.4l.18.47.47-.17-.18-.47-.47.17ZM217.2,474.02l-.47.17.18.47.47-.17-.18-.47ZM213.64,464.88l.18.47,12.78-4.62-.18-.47-.18-.47-12.78,4.62.18.47ZM226.42,460.26l-.47.17,3.56,9.14.47-.17.47-.17-3.56-9.14-.47.17ZM229.97,469.4l-.18-.47-12.78,4.62.18.47.18.47,12.78-4.62-.18-.47ZM217.2,474.02l.47-.17-3.56-9.14-.47.17-.47.17,3.56,9.14.47-.17ZM215.27,469.07l.18.47,12.78-4.62-.18-.47-.18-.47-12.78,4.62.18.47ZM220.03,462.57l-.47.17,3.56,9.14.47-.17.47-.17-3.56-9.14-.47.17Z"/>
  <polygon id="rect9" class="st0" points="304.27 449.46 331.44 448.95 332.21 466.92 305.04 467.42 304.27 449.46"/>
  <path id="path10" class="st0" d="M317.01,429.61l18.84,19.26-35.99.67,17.15-19.93h0Z"/>
  <path id="path11" class="st4" d="M310.83,453.42l13.59-.25.42,9.8-13.59.25-.42-9.8Z"/>
  <path id="path12" class="st0" d="M310.83,453.42l-.02-.5h-.5l.02.51h.5ZM324.42,453.17h.5l-.02-.51h-.5l.02.51ZM324.84,462.97l.02.5h.5l-.02-.51h-.5ZM311.26,463.22h-.5l.02.51h.5l-.02-.51ZM310.83,453.42l.02.5,13.59-.25-.02-.5-.02-.5-13.59.25.02.5ZM324.42,453.17h-.5l.42,9.81h.5l.5-.02-.42-9.8h-.5ZM324.84,462.97l-.02-.5-13.59.25.02.5.02.5,13.59-.25-.02-.5ZM311.26,463.22h.5l-.42-9.81h-.5l-.5.02.42,9.8h.5ZM311.03,457.91l.02.5,13.59-.25-.02-.5-.02-.5-13.59.25.02.5ZM317.63,453.3h-.5l.42,9.81h.5l.5-.02-.42-9.8h-.5Z"/>
  <polygon id="rect21" class="st0" points="257.61 455.07 280.24 455.37 279.79 469.77 257.16 469.47 257.61 455.07"/>
  <path id="path22" class="st0" d="M269.41,439.51l14.5,15.9-29.97-.39,15.47-15.51h0Z"/>
  <path id="path23" class="st4" d="M262.83,458.41l11.32.15-.24,7.85-11.31-.15.24-7.85h-.01Z"/>
  <path id="path24" class="st0" d="M262.83,458.41l.02-.5h-.5l-.02.49h.5ZM274.14,458.56h.5l.02-.49h-.5l-.02.49ZM273.9,466.42l-.02.5h.5l.02-.49h-.5ZM262.58,466.27h-.5l-.02.49h.5l.02-.49ZM262.83,458.41l-.02.5,11.31.15.02-.5.02-.5-11.31-.15-.02.5ZM274.14,458.56h-.5l-.24,7.85h1s.24-7.84.24-7.84h-.5ZM273.9,466.42l.02-.5-11.31-.15-.02.5-.02.5,11.31.15.02-.5ZM262.58,466.27h.5l.24-7.85h-1s-.24,7.84-.24,7.84h.5ZM262.72,462.01l-.02.5,11.31.15.02-.5.02-.5-11.31-.15-.02.5ZM268.49,458.49h-.5l-.24,7.85h1s.24-7.84.24-7.84h-.5Z"/>
  <rect class="st2" x=".02" y=".52" width="375" height="570"/>
  <line class="st2" x1="375.02" y1="580.62" x2="375.02" y2="569.54"/>
  <g>
    <polygon id="rect12" class="st0" points="343.45 448.89 370.62 449.44 370.69 467.42 343.52 466.87 343.45 448.89"/>
    <path id="path13" class="st0" d="M356.95,429.55l18.07,19.98-35.99-.73,17.92-19.25h0Z"/>
    <path id="path14" class="st4" d="M349.85,453.11l13.59.28.04,9.81-13.59-.28-.04-9.81Z"/>
    <path id="path15" class="st0" d="M349.85,453.11v-.5h-.5s0,.49,0,.49h.5ZM363.44,453.38h.5v-.49h-.5v.49ZM363.48,463.19v.5h.5s0-.49,0-.49h-.5ZM349.89,462.91h-.5v.49h.5v-.49ZM349.85,453.11v.5l13.59.28v-1l-13.59-.28v.5ZM363.44,453.38h-.5l.04,9.8h.5l.5.02-.04-9.81h-.5ZM363.48,463.19v-.5l-13.59-.28v1l13.59.28v-.5ZM349.89,462.91h.5l-.04-9.8h-.5l-.5-.02.04,9.81h.5ZM349.87,457.6v.5l13.59.28v-1l-13.59-.28v.5ZM356.65,453.25h-.5l.04,9.8h.5l.5.02-.04-9.81h-.5Z"/>
    <line class="st2" x1="365.92" y1="460.07" x2="365.92" y2="405.63"/>
  </g>
</svg>